<?xml version="1.0" encoding="UTF-8"?>
<svg width="320px" height="62px" viewBox="0 0 320 62" version="1.1" xmlns="http://www.w3.org/2000/svg" xmlns:xlink="http://www.w3.org/1999/xlink">
    <!-- Generator: Sketch 52.3 (67297) - http://www.bohemiancoding.com/sketch -->
    <title>careg-logo-single</title>
    <desc>Created with Sketch.</desc>
    <defs>
        <polygon id="path-1" points="0.000970186335 0.0319576099 43.9893416 0.0319576099 43.9893416 62 0.000970186335 62"></polygon>
        <polygon id="path-3" points="0.00972343125 0.0652199396 27.9791586 0.0652199396 27.9791586 23 0.00972343125 23"></polygon>
    </defs>
    <g id="Symbols/Style-Guide" stroke="none" stroke-width="1" fill="none" fill-rule="evenodd">
        <g id="Header-/-Desktop" transform="translate(-93.000000, -23.000000)">
            <g id="careg-logo-single" transform="translate(93.000000, 23.000000)">
                <g id="logo" transform="translate(56.666667, 10.333333)">
                    <g id="CarRegistration.com" transform="translate(1.000000, 0.000000)">
                        <path d="M9.3668926,22.9173855 C2.16893315,22.9173855 0.309173294,17.5447459 0.309173294,11.4833064 C0.309173294,5.38742688 2.13449315,0.0492272875 9.84905256,0.0492272875 C11.6054924,0.0492272875 13.6374523,0.359187264 15.1872522,0.703587237 L14.8772922,2.25338712 C13.4996923,1.97786714 11.3988524,1.63346717 9.71129257,1.63346717 C3.23657307,1.63346717 2.13449315,6.55838679 2.13449315,11.5177464 C2.13449315,16.201586 3.16769308,21.3331457 9.43577259,21.3331457 C11.4332924,21.3331457 13.6030123,20.7821057 15.4283321,20.0244258 L16.0482521,21.4364656 C14.0162922,22.4352256 11.4332924,22.9173855 9.3668926,22.9173855 Z M18.2389719,18.0957859 C18.2389719,14.6173462 20.9252917,13.2397463 24.7825714,13.2397463 C25.8502113,13.2397463 27.4688912,13.3430663 28.7087311,13.5152663 L28.7087311,11.5866264 C28.7087311,8.59034663 26.9867312,7.83266669 24.7136914,7.83266669 C23.0950115,7.83266669 21.2696917,8.24594666 19.8920918,8.65922663 L19.4788118,7.24718674 C20.9252917,6.79946677 22.8883716,6.31730681 24.8170114,6.31730681 C27.7788512,6.31730681 30.430731,7.41938672 30.430731,11.4144264 L30.430731,22.5729856 L28.9842511,22.5729856 L28.8120511,21.0576257 C27.4344512,22.1597056 25.6780114,22.9173855 23.5771715,22.9173855 C20.6497717,22.9173855 18.2389719,21.3675857 18.2389719,18.0957859 Z M19.9954118,18.0613459 C19.9954118,20.3343857 21.5452117,21.4364656 23.7493715,21.4364656 C25.4024914,21.4364656 27.2622512,20.8165457 28.7087311,19.6455858 L28.7087311,14.9273061 C27.3655712,14.7895462 25.7124513,14.6862262 24.8170114,14.6862262 C21.9584916,14.6862262 19.9954118,15.5472261 19.9954118,18.0613459 Z M35.9276906,22.5729856 L35.9276906,6.66170678 L37.3741705,6.66170678 L37.5463704,8.62478663 C39.0961703,7.00610675 40.5426502,6.31730681 42.3335301,6.31730681 C42.98789,6.31730681 43.71113,6.4206268 44.1244099,6.52394679 L43.88333,8.14262667 C43.29785,8.03930668 42.85013,7.97042668 42.2990901,7.97042668 C40.4393302,7.97042668 38.8550903,8.79698662 37.6496904,10.2090265 L37.6496904,22.5729856 L35.9276906,22.5729856 Z" id="Car" stroke="#FCB116" fill="#FBB016"></path>
                        <path d="M45.0467299,22.5729856 L45.0467299,0.531387251 C47.1131297,0.290307269 49.1795295,0.0836672848 50.9704094,0.0836672848 C55.6886891,0.0836672848 59.2704488,1.39238718 59.2704488,6.4206268 C59.2704488,10.4156665 56.962969,12.1032264 53.6911692,12.6542663 C55.4131691,15.8916261 57.4451289,19.0945458 59.7181687,22.5041056 L59.6837287,22.5729856 L57.6173289,22.5729856 C55.4820491,19.3700658 53.5189692,16.0982661 51.7280894,12.8264663 C49.6272495,12.8264663 48.3529696,12.7575863 46.8376097,12.6198263 L46.8376097,22.5729856 L45.0467299,22.5729856 Z M46.8376097,11.0355864 C48.3529696,11.2077864 49.9372095,11.2422264 50.7982094,11.2422264 C54.6899291,11.2422264 57.4451289,10.3812265 57.4451289,6.4206268 C57.4451289,2.59778709 54.8965691,1.66790716 51.0048494,1.66790716 C49.9027695,1.66790716 48.3529696,1.73678716 46.8376097,1.87454715 L46.8376097,11.0355864 Z M62.7698885,14.8239862 C62.7698885,9.55466656 65.1462483,6.31730681 69.313488,6.31730681 C73.4807277,6.31730681 75.2027276,9.65798655 75.2027276,13.6185862 C75.2027276,14.1696262 75.1682876,14.6862262 75.0994076,15.2028261 L64.5263284,15.2028261 C64.6640884,18.8190258 65.9039283,21.4020257 69.692328,21.4020257 C71.4487678,21.4020257 72.9641277,20.8509857 74.4106076,20.0933058 L75.0994076,21.4364656 C73.6873677,22.1941456 71.8620478,22.9173855 69.623448,22.9173855 C65.3873283,22.9173855 62.7698885,20.2999457 62.7698885,14.8239862 Z M64.5263284,13.7907862 L73.5151677,13.7907862 C73.5151677,10.9667065 72.6541678,7.83266669 69.313488,7.83266669 C66.2483282,7.83266669 64.6640884,10.4156665 64.5263284,13.7907862 Z M80.6308071,27.0157452 C82.042847,27.3601452 83.7648469,27.6701052 85.3146468,27.6701052 C87.7943266,27.6701052 89.5507665,26.8779852 89.5507665,23.5373055 L89.5507665,21.4709056 C88.3109266,22.2974656 86.8988867,22.9173855 84.9013668,22.9173855 C80.8718871,22.9173855 78.7366073,20.3688257 78.7366073,14.6862262 C78.7366073,9.31358658 80.6652471,6.31730681 85.8312467,6.31730681 C87.7598866,6.31730681 89.6885264,6.73058678 91.2727663,7.28162673 L91.2727663,23.5717455 C91.2727663,27.5667852 89.0341665,29.1854651 85.2457668,29.1854651 C83.6615269,29.1854651 81.801767,28.9099451 80.3208472,28.5655451 L80.6308071,27.0157452 Z M85.0046868,21.4364656 C86.4511667,21.4364656 88.0698466,20.9887457 89.5507665,20.0244258 L89.5507665,8.28038666 C88.3798065,7.97042668 87.0366466,7.7637867 85.8656867,7.7637867 C81.801767,7.7637867 80.4930471,10.3123465 80.4930471,14.7551062 C80.4930471,19.1978658 81.801767,21.4364656 85.0046868,21.4364656 Z" id="Reg" stroke="#005775" fill="#005775"></path>
                        <path d="M94.5025661,3.07994706 L94.5025661,0.393627261 L96.2245659,0.393627261 L96.2245659,3.07994706 L94.5025661,3.07994706 Z M94.5025661,22.5729856 L94.5025661,6.66170678 L96.2245659,6.66170678 L96.2245659,22.5729856 L94.5025661,22.5729856 Z" id="i" stroke="#005775" fill="#005775"></path>
                        <path d="M99.6341257,22.2285856 L99.9785257,20.7132257 C101.218366,21.0231857 103.215885,21.4020257 104.869005,21.4020257 C107.314245,21.4020257 109.208445,20.6099057 109.208445,18.3713059 C109.208445,16.614866 108.037485,15.9605061 105.488925,15.2028261 C102.940365,14.4451462 99.8752057,13.7563462 99.8752057,10.5878665 C99.8752057,7.86710669 102.148245,6.31730681 105.661125,6.31730681 C107.038725,6.31730681 108.864045,6.55838679 110.069445,6.86834676 L109.759485,8.34926665 C108.657405,8.10818667 106.866525,7.83266669 105.557805,7.83266669 C102.974805,7.83266669 101.631646,8.86586661 101.631646,10.5534265 C101.631646,12.2754264 103.043685,12.7575863 106.005525,13.6185862 C109.208445,14.5829062 110.964885,15.5816661 110.964885,18.2335459 C110.964885,21.3675857 108.622965,22.9173855 104.731245,22.9173855 C102.974805,22.9173855 101.252806,22.6074256 99.6341257,22.2285856 Z" id="s" stroke="#005775" fill="#005775"></path>
                        <path d="M114.856605,18.6468259 L114.856605,8.07374667 L112.583565,8.07374667 L112.583565,6.86834676 L114.925485,6.73058678 L115.097684,1.90898714 L116.578604,1.90898714 L116.578604,6.66170678 L121.365764,6.66170678 L121.365764,8.07374667 L116.578604,8.07374667 L116.578604,18.5435059 C116.578604,20.3343857 116.991884,21.4020257 118.610564,21.4020257 C119.299364,21.4020257 120.091484,21.2298257 121.124684,20.7821057 L121.675724,22.1597056 C120.849164,22.5729856 119.781524,22.9173855 118.507244,22.9173855 C116.165324,22.9173855 114.856605,21.6775456 114.856605,18.6468259 Z" id="t" stroke="#005775" fill="#005775"></path>
                        <path d="M124.327604,22.5729856 L124.327604,6.66170678 L125.774084,6.66170678 L125.946284,8.62478663 C127.496084,7.00610675 128.942563,6.31730681 130.733443,6.31730681 C131.387803,6.31730681 132.111043,6.4206268 132.524323,6.52394679 L132.283243,8.14262667 C131.697763,8.03930668 131.250043,7.97042668 130.699003,7.97042668 C128.839243,7.97042668 127.255004,8.79698662 126.049604,10.2090265 L126.049604,22.5729856 L124.327604,22.5729856 Z" id="r" stroke="#005775" fill="#005775"></path>
                        <path d="M133.488643,18.0957859 C133.488643,14.6173462 136.174963,13.2397463 140.032243,13.2397463 C141.099883,13.2397463 142.718562,13.3430663 143.958402,13.5152663 L143.958402,11.5866264 C143.958402,8.59034663 142.236402,7.83266669 139.963363,7.83266669 C138.344683,7.83266669 136.519363,8.24594666 135.141763,8.65922663 L134.728483,7.24718674 C136.174963,6.79946677 138.138043,6.31730681 140.066683,6.31730681 C143.028522,6.31730681 145.680402,7.41938672 145.680402,11.4144264 L145.680402,22.5729856 L144.233922,22.5729856 L144.061722,21.0576257 C142.684122,22.1597056 140.927683,22.9173855 138.826843,22.9173855 C135.899443,22.9173855 133.488643,21.3675857 133.488643,18.0957859 Z M135.245083,18.0613459 C135.245083,20.3343857 136.794883,21.4364656 138.999043,21.4364656 C140.652163,21.4364656 142.511922,20.8165457 143.958402,19.6455858 L143.958402,14.9273061 C142.615242,14.7895462 140.962123,14.6862262 140.066683,14.6862262 C137.208163,14.6862262 135.245083,15.5472261 135.245083,18.0613459 Z" id="a" stroke="#005775" fill="#005775"></path>
                        <path d="M150.880842,18.6468259 L150.880842,8.07374667 L148.607802,8.07374667 L148.607802,6.86834676 L150.949722,6.73058678 L151.121922,1.90898714 L152.602842,1.90898714 L152.602842,6.66170678 L157.390001,6.66170678 L157.390001,8.07374667 L152.602842,8.07374667 L152.602842,18.5435059 C152.602842,20.3343857 153.016122,21.4020257 154.634801,21.4020257 C155.323601,21.4020257 156.115721,21.2298257 157.148921,20.7821057 L157.699961,22.1597056 C156.873401,22.5729856 155.805761,22.9173855 154.531481,22.9173855 C152.189562,22.9173855 150.880842,21.6775456 150.880842,18.6468259 Z" id="t" stroke="#005775" fill="#005775"></path>
                        <path d="M160.317401,3.07994706 L160.317401,0.393627261 L162.039401,0.393627261 L162.039401,3.07994706 L160.317401,3.07994706 Z M160.317401,22.5729856 L160.317401,6.66170678 L162.039401,6.66170678 L162.039401,22.5729856 L160.317401,22.5729856 Z" id="i" stroke="#005775" fill="#005775"></path>
                        <path d="M165.827801,14.6173462 C165.827801,9.76130654 167.82532,6.31730681 172.85356,6.31730681 C177.8818,6.31730681 179.87932,9.76130654 179.87932,14.6173462 C179.87932,19.4733858 177.8818,22.9173855 172.85356,22.9173855 C167.82532,22.9173855 165.827801,19.4733858 165.827801,14.6173462 Z M167.58424,14.6173462 C167.58424,18.5435059 168.89296,21.4020257 172.85356,21.4020257 C176.81416,21.4020257 178.12288,18.5435059 178.12288,14.6173462 C178.12288,10.6911865 176.81416,7.83266669 172.85356,7.83266669 C168.89296,7.83266669 167.58424,10.6911865 167.58424,14.6173462 Z" id="o" stroke="#005775" fill="#005775"></path>
                        <path d="M183.633279,22.5729856 L183.633279,6.66170678 L185.079759,6.66170678 L185.217519,8.38370665 C186.560679,7.38494673 188.420439,6.31730681 190.796799,6.31730681 C193.586438,6.31730681 195.790598,7.7293467 195.790598,11.4144264 L195.790598,22.5729856 L194.068598,22.5729856 L194.068598,11.5866264 C194.068598,8.86586661 192.690999,7.83266669 190.659039,7.83266669 C188.695959,7.83266669 186.698439,8.79698662 185.355279,9.76130654 L185.355279,22.5729856 L183.633279,22.5729856 Z" id="n" stroke="#005775" fill="#005775"></path>
                        <polygon id="." stroke="#005775" fill="#005775" points="200.956598 22.5729856 200.956598 20.0244258 203.160758 20.0244258 203.160758 22.5729856"></polygon>
                        <path d="M207.500197,14.5140262 C207.500197,9.89906653 209.187757,6.31730681 214.663717,6.31730681 C216.075757,6.31730681 217.832197,6.55838679 219.072037,6.86834676 L218.762077,8.31482665 C217.694437,8.07374667 215.972437,7.79822669 214.629277,7.79822669 C210.944197,7.79822669 209.291077,10.0368265 209.291077,14.4795862 C209.291077,18.2679859 210.393157,21.3675857 214.629277,21.3675857 C216.041317,21.3675857 217.625557,21.0231857 219.140917,20.3343857 L219.760836,21.7119856 C218.417677,22.3663456 216.523477,22.9173855 214.525957,22.9173855 C209.635477,22.9173855 207.500197,19.5767058 207.500197,14.5140262 Z" id="c" stroke="#005775" fill="#005775"></path>
                        <path d="M221.655036,14.6173462 C221.655036,9.76130654 223.652556,6.31730681 228.680796,6.31730681 C233.709035,6.31730681 235.706555,9.76130654 235.706555,14.6173462 C235.706555,19.4733858 233.709035,22.9173855 228.680796,22.9173855 C223.652556,22.9173855 221.655036,19.4733858 221.655036,14.6173462 Z M223.411476,14.6173462 C223.411476,18.5435059 224.720196,21.4020257 228.680796,21.4020257 C232.641395,21.4020257 233.950115,18.5435059 233.950115,14.6173462 C233.950115,10.6911865 232.641395,7.83266669 228.680796,7.83266669 C224.720196,7.83266669 223.411476,10.6911865 223.411476,14.6173462 Z" id="o" stroke="#005775" fill="#005775"></path>
                        <path d="M239.460515,22.5729856 L239.460515,6.66170678 L240.906995,6.66170678 L241.044755,8.38370665 C242.491235,7.28162673 244.316555,6.31730681 246.382954,6.31730681 C248.277154,6.31730681 249.758074,7.14386674 250.515754,8.72810662 C252.409954,7.24718674 254.235274,6.31730681 256.301674,6.31730681 C259.160193,6.31730681 261.019953,8.17706666 261.019953,11.5521864 L261.019953,22.5729856 L259.297953,22.5729856 L259.297953,11.6899464 C259.297953,8.9691866 257.989234,7.83266669 255.991714,7.83266669 C254.476354,7.83266669 252.685474,8.52146664 250.929034,9.93350653 C251.032354,10.4156665 251.101234,10.9667065 251.101234,11.5521864 L251.101234,22.5729856 L249.379234,22.5729856 L249.379234,11.6899464 C249.379234,8.9691866 248.070514,7.83266669 246.072994,7.83266669 C244.557635,7.83266669 242.870075,8.48702664 241.182515,9.76130654 L241.182515,22.5729856 L239.460515,22.5729856 Z" id="m" stroke="#005775" fill="#005775"></path>
                    </g>
                </g>
                <g id="mark">
                    <g id="Group-3" transform="translate(1.000000, 0.000000)">
                        <mask id="mask-2" fill="white">
                            <use xlink:href="#path-1"></use>
                        </mask>
                        <g id="Clip-2"></g>
                        <path d="M21.9951627,62.000014 C0.154081988,52.4404108 -5.46583851e-05,33.4458336 0.000970186335,33.2507468 L0.000970186335,7.19487982 C7.18397019,1.5301628 18.1912124,0.092140248 22.0651255,0.0319576099 C22.0671752,0.034054566 35.3947342,0.374320631 43.9893553,7.19075581 L43.9893553,33.223766 C43.9842994,34.0247333 43.6121441,52.5462372 21.9951627,62.000014" id="Fill-1" fill="#005775" mask="url(#mask-2)"></path>
                    </g>
                    <polygon id="Fill-4" fill="#FEFEFE" points="43 10.5185359 39.1187694 10.5185359 38 7 36.8812306 10.5185359 33 10.5185359 36.0646312 13.0865662 34.820152 17 38 14.708362 41.179848 17 39.9353688 13.0865662"></polygon>
                    <g id="Group-8" transform="translate(16.000000, 39.000000)">
                        <mask id="mask-4" fill="white">
                            <use xlink:href="#path-3"></use>
                        </mask>
                        <g id="Clip-7"></g>
                        <path d="M27.9791586,0.0652199396 C25.6148828,8.70529849 10.5182621,9.10269124 2.68929655,12.1703076 C-5.14194483,15.2387577 6.68474483,23.0000417 6.68474483,23.0000417 C21.2395724,16.7312562 26.2527448,6.45199335 27.9791586,0.0652199396" id="Fill-6" fill="#FCB61B" mask="url(#mask-4)"></path>
                    </g>
                    <path d="M39.4980919,35.4667404 C39.8479409,33.8004405 42.6554811,33.9146922 45,34.3175801 L35.0710104,26.335688 C34.2469812,23.3858385 33.6353137,22.138788 31.4878647,20.4539589 C31.4058958,17.9981749 30.9090537,11.8645885 28.0008087,11.0970598 C25.4904232,10.4344834 23.0491948,13.3144114 21.7708234,15.1748135 C20.4092432,15.0288173 18.8437738,15.0695117 17.1474985,15.2522166 C14.9057508,12.7857347 11.9339972,10.5046847 9.90750407,12.7263713 C8.77715901,13.9655207 8.48089977,15.4677847 8.60963925,16.9511 C5.69209534,17.729886 2.73659773,18.6740364 5.45694929e-06,19.6267172 L5.45694929e-06,33.0810179 C-0.000201187487,33.1162583 0.00475827898,33.7548516 0.13804394,34.8350693 L5.21240472,40.2951716 L8.63781177,34.8931042 L15.290936,41.0122868 L17.5986722,37.9049041 L21.3662825,38.9088375 C21.3662825,38.9088375 29.2782846,29.0129134 21.1778227,29.8733677 C13.0774986,30.7338221 27.0276512,23.3950681 27.1590082,23.323888 C28.9189989,22.370438 23.6268348,28.247832 23.6268348,28.247832 C23.6268348,28.247832 34.2233549,26.7659151 29.2311008,31.7856516 C24.2391223,36.8053881 33.8522215,41.9908386 33.8522215,41.9908386 C39.0327286,42.1820041 42.3693474,39.3180882 42.3693474,39.3180882 C42.3693474,39.3180882 38.8857355,38.3830276 39.4980919,35.4667404" id="Fill-9" fill="#FEFEFE"></path>
                </g>
            </g>
        </g>
    </g>
</svg>