<?xml version="1.0" encoding="utf-8"?>
<!-- Generator: Adobe Illustrator 23.0.1, SVG Export Plug-In . SVG Version: 6.00 Build 0)  -->
<svg version="1.1" id="Layer_1" xmlns="http://www.w3.org/2000/svg" xmlns:xlink="http://www.w3.org/1999/xlink" x="0px" y="0px"
	 width="607.5px" height="79.9px" viewBox="0 0 607.5 79.9" style="enable-background:new 0 0 607.5 79.9;" xml:space="preserve">
<style type="text/css">
	.st0{fill:#FDB71C;}
	.st1{fill:#005776;}
	.st2{opacity:0.5;fill:#FDB71C;}
</style>
<g id="mark">
	<g id="Clip-2">
	</g>
	<g id="Clip-7">
	</g>
</g>
<path class="st0" d="M55.9,53c-5.2,8.7-22.4,9.5-31.7,13.1c-9.1,3.6,2.4,12.1,4.8,13.8C29.8,79.5,49.6,71.4,55.9,53z"/>
<g>
	<path class="st1" d="M57.9,8.3L57.9,8.3C57.9,8.3,44.9,0,29,0c0,0,0,0,0,0c0,0,0,0,0,0c0,0,0,0,0,0s0,0,0,0c0,0,0,0,0,0
		c0,0,0,0,0,0C12.9,0,0,8.3,0,8.3v17.7C2.8,24.3,6,23,9.4,22c0.3-0.1,0.5-0.1,0.8-0.2c-0.4-3.6,0.2-6.7,2.9-7.8
		c3.2-1.3,6.4,1.7,8.8,5.7c2.4-0.2,4.5-0.1,6.5,0.1c1.9-3.9,4.4-6.8,7.6-5.9c3.3,0.9,4.2,5.1,3.8,9.8c0,0.4,0,0.8-0.1,1.2
		c2.6,2.5,4.4,5.8,5.6,9.6l12.4,9.9c0.1-1,0.1-2,0.1-3c0,0,0,0,0,0V8.3z M52.4,22l-4.1-2.9L44.1,22l1.6-4.9l-4-3.2h5.1l1.5-4.4
		l1.5,4.4h5.1l-4,3.2L52.4,22z"/>
	<path class="st1" d="M50.8,46.1c-0.8,2.1,1.1,4,3.7,5.4c-1.5,1.1-3.3,2-5.4,2.6c-1.5,0.4-3,0.7-4.7,0.8c-0.5,0-1,0-1.4,0
		c-0.3,0-0.5,0-0.8,0c-0.2,0-0.4,0-0.6,0c-2.8-0.6-5.1-0.9-5.5-2.1c-0.7-2.3,7.3-5,6.1-8.5c-1-3.1-12.3-1.7-13.5-2.5
		c-2.9-2,8.3-8.9,8.3-8.9s-16.2,6.8-14.8,10.9c0.8,2.5,9.7,0.9,10.6,3.7c0.5,1.4-3.5,3.8-6.1,6.2l-6.9-6.9l-2.6,3.7L10.9,44
		l-5.2,7.5l-5.3-5.3C1.6,56.2,7,63.8,12.7,69.2c0,0,0,0,0,0c0.2,0.2,0.5,0.4,0.7,0.7c0,0,0,0,0,0v0c0.3,0.3,0.7,0.6,1,0.9
		c0.1,0.1,0.3,0.3,0.4,0.4c0,0,0,0,0,0c0.3,0.3,0.7,0.6,1,0.9c0.1,0.1,0.1,0.1,0.2,0.2c0.3,0.3,0.7,0.5,1,0.8c0,0,0.1,0.1,0.1,0.1
		c0.3,0.2,0.6,0.4,0.9,0.7c0.1,0.1,0.1,0.1,0.2,0.2c0.3,0.2,0.6,0.5,0.9,0.7c0.1,0,0.1,0.1,0.2,0.1c0.3,0.2,0.5,0.4,0.8,0.5
		c0.1,0,0.1,0.1,0.2,0.1c0.3,0.2,0.6,0.4,0.9,0.6c0.1,0.1,0.2,0.1,0.2,0.1c0.3,0.2,0.5,0.3,0.7,0.5c0,0,0.1,0.1,0.1,0.1
		c0.3,0.2,0.5,0.3,0.8,0.5c0.1,0,0.2,0.1,0.2,0.1c0.2,0.1,0.5,0.3,0.7,0.4c0.1,0,0.1,0.1,0.2,0.1c0.2,0.1,0.4,0.2,0.6,0.3
		c0.1,0,0.2,0.1,0.2,0.1c0.2,0.1,0.4,0.2,0.6,0.3c0.1,0,0.1,0.1,0.2,0.1c0.1,0.1,0.3,0.1,0.4,0.2c0.1,0,0.1,0.1,0.2,0.1
		c0.2,0.1,0.3,0.2,0.5,0.2c0.1,0,0.1,0.1,0.2,0.1c0.1,0.1,0.2,0.1,0.3,0.2c0,0,0.1,0,0.1,0.1c0.1,0.1,0.2,0.1,0.4,0.2
		c0,0,0.1,0,0.1,0c0.1,0,0.2,0.1,0.3,0.1c0,0,0,0,0,0c0,0,0,0,0,0c0,0,0,0,0.1,0c0,0,0.1,0,0.1,0c0,0,0,0,0,0c0,0,0,0,0.1,0
		c0,0,0,0,0.1,0c0,0,0,0,0,0c0,0,0,0,0,0c0,0,0,0,0,0c0,0,0,0,0.1,0c0,0,0,0,0,0c0,0,0,0,0,0c0,0,0,0,0,0h0c0,0,0,0,0,0c0,0,0,0,0,0
		s0,0,0,0c-2.4-1.7-13.9-10.2-4.8-13.8c9.3-3.6,26.5-4.4,31.7-13.1c0,0,0-0.1,0-0.1c0.2-0.6,0.4-1.2,0.6-1.8c0-0.1,0.1-0.2,0.1-0.3
		c0.2-0.6,0.3-1.2,0.5-1.9c0-0.1,0-0.1,0-0.2c0.1-0.7,0.3-1.3,0.4-2c0,0,0-0.1,0-0.1c0.1-0.7,0.2-1.5,0.3-2.2c-0.2,0-0.3,0-0.5-0.1
		C54.3,43.8,51.6,44,50.8,46.1z"/>
</g>
<g>
	<path class="st0" d="M100.9,59.2c-12,0-14-9.6-14-19.2c0-10.2,2.3-19.2,14.7-19.2c3.3,0,7.6,0.6,10.5,1.2l0.8-4.6
		c-3.2-0.6-7.3-1.3-11.2-1.3c-15.8,0-20.2,10.6-20.2,23.9c0,13.4,4.4,23.9,19.3,23.9c4.6,0,9.6-1,14-3l-1.7-4.2
		C109.3,58,105.1,59.2,100.9,59.2z"/>
	<path class="st0" d="M129.8,29.1c-4,0-8.1,0.9-11.2,1.8l1,4.2c2.8-0.8,6.6-1.5,9.8-1.5c4.7,0,7.7,1.6,7.7,7.1v3.2
		c-2.4-0.4-5.2-0.6-7.3-0.6c-8.3,0-13.8,3.2-13.8,10.3c0,6.8,5.1,10.2,11.2,10.2c4.3,0,7.8-1.7,10.4-3.7l0.5,3h4v-23
		C142.2,31.9,136.8,29.1,129.8,29.1z M137.2,56.4c-2.5,2-6,3.2-9.1,3.2c-4,0-6.8-2.1-6.8-6.2c0-4.5,3.5-6.2,8.6-6.2
		c1.9,0,4.8,0.2,7.3,0.4V56.4z"/>
	<path class="st0" d="M164.3,29.1c-3.7,0-6.8,1.4-9.8,4.8l-0.6-4H150v33.3h5V38c2.3-2.6,5.3-4.1,9.1-4.1c1.2,0,2.2,0.1,3.5,0.4
		l0.5-4.7C167.1,29.4,165.6,29.1,164.3,29.1z"/>
</g>
<g>
	<path class="st1" d="M202.6,29.7c0-10.7-7.5-13.7-17.5-13.7c-4.1,0-9,0.5-13.1,1v46.1h5.3V43.2c2.7,0.3,5.1,0.4,8.9,0.4
		c3.4,6.4,7.3,13.1,11.4,19.5h6.2l0.1-0.1c-4.5-6.9-8.6-13.6-12-20.1C198.2,41.5,202.6,37.8,202.6,29.7z M184.8,39.2
		c-1.7,0-4.7-0.1-7.4-0.4V21.2c2.7-0.2,5.6-0.4,7.8-0.4c7.3,0,12.1,1.8,12.1,9.1C197.2,37.4,192.2,39.2,184.8,39.2z"/>
	<path class="st1" d="M220.6,29.1c-8.9,0-13.9,6.6-13.9,17.7c0,11.4,5.5,17,14.7,17c4.6,0,8.5-1.4,11.6-2.9l-1.7-4
		c-2.9,1.4-6.1,2.4-9.6,2.4c-7,0-9.4-4.4-9.8-11.1h21.1c0.1-1.3,0.3-2.7,0.3-4.2C233.2,35.7,229.3,29.1,220.6,29.1z M211.8,44.3
		c0.3-6.1,3.1-10.7,8.6-10.7c6,0,7.7,5.3,7.8,10.7H211.8z"/>
	<path class="st1" d="M237,46.6c0,11.4,4.4,17.1,13,17.1c3.7,0,6.5-1.1,8.9-2.6v3.7c0,6.3-3.5,7.6-8.2,7.6c-3.1,0-6.7-0.6-9.4-1.2
		l-0.7,4.5c3,0.7,6.7,1.2,10,1.2c8.3,0,13.4-3.2,13.4-12.2V31.2c-3.2-1.1-7.5-2.1-11.8-2.1C241.6,29.1,237,35,237,46.6z M258.9,34.3
		v22.5c-2.6,1.7-5.5,2.4-8.2,2.4c-6,0-8.4-4.1-8.4-12.7c0-8.7,2.4-13.2,9.9-13.2C254.2,33.4,256.8,33.8,258.9,34.3z"/>
	<rect x="272.1" y="16.8" class="st1" width="5" height="6.3"/>
	<rect x="272.1" y="29.9" class="st1" width="5" height="33.3"/>
	<path class="st1" d="M296.6,44c-5.2-1.7-8.6-2.3-8.6-5.8c0-3,2.4-4.7,7.3-4.7c2.7,0,6.3,0.5,8.7,1l0.7-4.4
		c-2.6-0.6-6.3-1.1-9.3-1.1c-7.8,0-12.7,3.4-12.7,9.4c0,6.3,5.6,8.1,11,9.8c5.2,1.7,7.7,2.6,7.7,5.8c0,3.9-3.5,5.3-8.2,5.3
		c-3.2,0-7.3-0.6-9.9-1.3l-0.9,4.4c3.2,0.8,7,1.4,10.6,1.4c8.7,0,13.5-3.5,13.5-10C306.6,48.1,302.8,46.1,296.6,44z"/>
	<path class="st1" d="M321.8,59.4c-3,0-3.8-1.7-3.8-5.1V34h9.5v-4.2H318v-9.7h-4.5l-0.4,9.9l-5,0.3V34h4.8v20.5
		c0,6.6,3.1,9.3,8.3,9.3c2.7,0,5.1-0.7,7-1.6l-1.4-4C324.9,59,323.2,59.4,321.8,59.4z"/>
	<path class="st1" d="M336.7,33.9l-0.6-4h-3.9v33.3h5V38c2.3-2.6,5.3-4.1,9.1-4.1c1.2,0,2.2,0.1,3.5,0.4l0.5-4.7
		c-0.9-0.2-2.4-0.4-3.8-0.4C342.8,29.1,339.7,30.6,336.7,33.9z"/>
	<path class="st1" d="M364.6,29.1c-4,0-8.1,0.9-11.2,1.8l1,4.2c2.8-0.8,6.6-1.5,9.8-1.5c4.7,0,7.7,1.6,7.7,7.1v3.2
		c-2.4-0.4-5.2-0.6-7.3-0.6c-8.3,0-13.7,3.2-13.7,10.3c0,6.8,5.1,10.2,11.2,10.2c4.3,0,7.8-1.7,10.4-3.7l0.5,3h4v-23
		C377,31.9,371.6,29.1,364.6,29.1z M371.9,56.4c-2.5,2-6,3.2-9.1,3.2c-4,0-6.8-2.1-6.8-6.2c0-4.5,3.5-6.2,8.6-6.2
		c1.9,0,4.8,0.2,7.3,0.4V56.4z"/>
	<path class="st1" d="M394.8,59.4c-3,0-3.8-1.7-3.8-5.1V34h9.5v-4.2H391v-9.7h-4.5l-0.4,9.9l-5,0.3V34h4.8v20.5
		c0,6.6,3.1,9.3,8.3,9.3c2.7,0,5.1-0.7,7-1.6l-1.4-4C397.9,59,396.2,59.4,394.8,59.4z"/>
	<rect x="405.2" y="16.8" class="st1" width="5" height="6.3"/>
	<rect x="405.2" y="29.9" class="st1" width="5" height="33.3"/>
	<path class="st1" d="M431,29.1c-10.7,0-14.8,7.1-14.8,17.3c0,10.3,4.2,17.3,14.8,17.3c10.7,0,14.9-7.1,14.9-17.3
		C445.9,36.2,441.7,29.1,431,29.1z M431,59.4c-7.6,0-9.6-5.5-9.6-12.9c0-7.4,2.1-12.9,9.6-12.9c7.6,0,9.7,5.5,9.7,12.9
		C440.7,53.9,438.5,59.4,431,59.4z"/>
	<path class="st1" d="M467.3,29.1c-4.7,0-8.4,1.9-11.2,4l-0.4-3.2h-3.9v33.3h5V36.9c2.4-1.7,6-3.3,9.6-3.3c4,0,6.4,2,6.4,7v22.5h5
		v-23C477.9,32.7,473.7,29.1,467.3,29.1z"/>
	<rect x="486.3" y="56.9" class="st1" width="5.7" height="6.2"/>
	<path class="st1" d="M513.8,59.4c-7.8,0-9.9-5.5-9.9-13c0-8.9,2.9-12.8,10.2-12.8c2.6,0,5.9,0.5,8.2,0.9l0.7-4.3
		c-2.7-0.6-6-1.1-8.9-1.1c-11.7,0-15.4,7.1-15.4,17.1c0,11,4.5,17.6,14.8,17.6c4.1,0,8.1-1.1,11-2.4l-1.5-4
		C520,58.6,516.6,59.4,513.8,59.4z"/>
	<path class="st1" d="M541.5,29.1c-10.7,0-14.8,7.1-14.8,17.3c0,10.3,4.2,17.3,14.8,17.3c10.7,0,14.9-7.1,14.9-17.3
		C556.4,36.2,552.2,29.1,541.5,29.1z M541.5,59.4c-7.6,0-9.6-5.5-9.6-12.9c0-7.4,2.1-12.9,9.6-12.9c7.6,0,9.7,5.5,9.7,12.9
		C551.2,53.9,549,59.4,541.5,59.4z"/>
	<path class="st1" d="M597.3,29.1c-4.2,0-7.8,1.8-11.5,4.6c-1.7-3-4.6-4.6-8.5-4.6c-4.4,0-7.9,1.9-10.7,4l-0.4-3.2h-3.9v33.3h5V36.8
		c2.9-2.1,6-3.2,8.8-3.2c3.9,0,6.3,2.2,6.3,7.2v22.3h5V40.4c0-1.2-0.1-2.2-0.4-3.2c3.2-2.4,6.4-3.5,9.1-3.5c3.9,0,6.3,2.2,6.3,7.2
		v22.3h5V40.4C607.5,33.3,603.7,29.1,597.3,29.1z"/>
</g>
<path class="st2" d="M-1439.6,635.3c0.3-0.4,0.7-0.9,1-1.3C-1439,634.4-1439.3,634.9-1439.6,635.3z"/>
</svg>
