<?xml version="1.0" encoding="UTF-8"?>
<svg width="110px" height="39px" viewBox="0 0 110 39" version="1.1" xmlns="http://www.w3.org/2000/svg" xmlns:xlink="http://www.w3.org/1999/xlink">
    <!-- Generator: Sketch 49.1 (51147) - http://www.bohemiancoding.com/sketch -->
    <title>etrust</title>
    <desc>Created with Sketch.</desc>
    <defs></defs>
    <g id="Symbols" stroke="none" stroke-width="1" fill="none" fill-rule="evenodd">
        <g id="Footer-/-Desktop" transform="translate(-1172.000000, -230.000000)" fill-rule="nonzero">
            <g id="Footer">
                <g id="Trust-Seals" transform="translate(879.000000, 225.000000)">
                    <g id="etrust" transform="translate(293.400000, 5.600000)">
                        <g id="layer101" transform="translate(9.312542, 9.118256)" fill="#FDFEFB">
                            <path d="M8.16512241,19.2917711 C7.54018832,19.199564 6.19811676,18.7590191 5.45024482,18.400436 C3.67789077,17.5500817 1.90553672,15.7981471 0.993747645,14.0257221 C-0.112693033,11.8639782 -0.307344633,8.92359673 0.512241054,6.55694823 C1.27035781,4.3747139 3.07344633,2.28468665 5.14290019,1.18844687 C6.29032015,0.583978201 7.06892655,0.338092642 8.49295668,0.122942779 C9.47645951,-0.0204904638 9.77355932,-0.0204904638 10.6443691,0.0819618523 C13.0928814,0.389318801 15.0803766,1.3933515 16.6990584,3.12479564 C18.2050471,4.733297 18.9734087,6.36228883 19.2909981,8.62648501 C19.4651601,9.86615804 19.4856497,9.84566757 17.8054991,9.81493188 L16.4634275,9.78419618 L16.3917137,9.2719346 C16.0843691,7.2946049 15.520904,6.07542234 14.373484,4.93820163 C13.7690395,4.3439782 13.4207156,4.09809264 12.6830885,3.73950954 C11.4639548,3.16577657 10.9619586,3.05307902 9.57890772,3.06332425 C8.21634652,3.07356948 7.22259887,3.3399455 6.18787194,3.96490463 C4.89702448,4.75378747 3.75984934,6.16762943 3.28858757,7.59171662 C3.07344633,8.24741144 3.04271186,8.54452316 3.04271186,9.73297003 C3.04271186,10.8189646 3.08369115,11.2390191 3.23736346,11.679564 C3.95450094,13.8105722 5.57318267,15.439564 7.60165725,16.1055041 C8.54418079,16.412861 10.2243314,16.4743324 11.2078343,16.2386921 C12.1708475,16.0030518 13.3182674,15.439564 13.973936,14.8760763 L14.4964218,14.4355313 L15.4799247,15.3883379 C16.0229002,15.9108447 16.4634275,16.412861 16.4634275,16.4948229 C16.4634275,16.6894823 15.2955179,17.6217984 14.3837288,18.1443052 C13.512919,18.6463215 12.2323164,19.1073569 11.2897928,19.2507902 C10.6443691,19.3532425 8.80030132,19.373733 8.16512241,19.2917711 Z" id="Shape"></path>
                            <path d="M5.5834275,9.68174387 C5.38877589,9.14899183 5.9727307,7.60196185 6.61815443,6.94626703 C7.75532957,5.77831063 9.1793597,5.3172752 10.5521657,5.67585831 C11.45371,5.90125341 11.9557062,6.18811989 12.5908851,6.82332425 C13.3387571,7.56098093 13.7690395,8.493297 13.7280603,9.24119891 L13.6973258,9.78419619 L9.67111111,9.81493188 C6.09566855,9.83542234 5.64489642,9.81493188 5.5834275,9.68174387 Z" id="Shape"></path>
                        </g>
                        <g id="layer102" transform="translate(0.665913, 0.860599)" fill="#221F1F">
                            <path d="M37.5063657,34.3838156 C37.4652603,34.3221573 37.4755366,34.2193936 37.5371949,34.1577354 C37.5988531,34.0960771 37.6605113,34.0960771 37.7118932,34.1782881 C37.7529987,34.2399463 37.7427223,34.3427101 37.6810641,34.4043683 C37.6194058,34.4660265 37.5577476,34.4660265 37.5063657,34.3838156 Z" id="Shape"></path>
                            <path d="M69.0398493,18.0418529 C67.5543503,17.7140054 66.3249718,16.8021798 65.6897928,15.5522616 C65.105838,14.3945504 65.0648588,14.0359673 65.0648588,9.33340599 L65.0648588,5.03040872 L66.4991337,5.03040872 L67.9334087,5.03040872 L67.9846328,9.23095368 C68.0358569,13.3495368 68.0358569,13.4417439 68.2714878,13.9437602 C68.7632392,15.0092643 69.4496422,15.4293188 70.7302448,15.4293188 C72.0210923,15.4293188 72.6972505,15.0092643 73.1890019,13.9232698 C73.3426742,13.5851771 73.3734087,13.0114441 73.4143879,9.28217984 L73.4656121,5.03040872 L74.899887,5.03040872 L76.334162,5.03040872 L76.334162,9.38463215 C76.334162,14.199891 76.3136723,14.3535695 75.6887382,15.5625068 C75.0228249,16.8636512 73.6909981,17.7959673 72.092806,18.093079 C71.3346893,18.2365123 69.8082109,18.2057766 69.0398493,18.0418529 Z" id="Shape"></path>
                            <path d="M82.17371,18.1033243 C80.8623729,17.8881744 79.1309981,17.1300272 78.2909228,16.4231063 L77.8913748,16.0747684 L78.6904708,15.1117166 C79.1309981,14.5789646 79.5305461,14.1076839 79.5715254,14.066703 C79.6022599,14.0154768 79.8686252,14.1486649 80.1349906,14.3638147 C80.4116008,14.5687193 80.9750659,14.906812 81.3951036,15.1014714 C82.0405273,15.3985831 82.2966478,15.4600545 83.146968,15.5010354 C83.9870433,15.5522616 84.2021846,15.5317711 84.5914878,15.3576022 C85.1344633,15.1117166 85.3598493,14.7121526 85.2574011,14.1589101 C85.1447081,13.5749319 84.7758945,13.3802725 82.6039925,12.7655586 C80.1759699,12.0688828 79.2232015,11.4849046 78.7314501,10.3784196 C78.5265537,9.93787466 78.4855744,9.67149864 78.4855744,8.82114441 C78.4855744,7.86833787 78.506064,7.7453951 78.8236535,7.11019074 C79.3358945,6.05493188 80.3706215,5.27629428 81.6204896,4.98942779 C82.3068927,4.82550409 84.0690019,4.85623978 84.8578531,5.04065395 C85.667194,5.22506812 86.8043691,5.7373297 87.4293032,6.19836512 L87.8698305,6.52621253 L87.2448964,7.42779292 C86.3126177,8.79040872 86.4048211,8.74942779 85.4622976,8.21667575 C84.1612053,7.47901907 82.8908475,7.25362398 82.0507721,7.63269755 C81.5487759,7.86833787 81.4053484,8.09373297 81.4053484,8.64697548 C81.4053484,9.35389646 81.6102448,9.46659401 84.632467,10.3579292 C86.353597,10.8599455 87.4702825,11.5873569 87.8903202,12.4786921 C88.1566855,13.0421798 88.300113,13.9642507 88.2181544,14.6097003 C87.9415443,16.7919346 86.353597,18.0520981 83.7616573,18.1443052 C83.1674576,18.1647956 82.460565,18.1443052 82.17371,18.1033243 Z" id="Shape"></path>
                            <path d="M102.110132,18.0316076 C100.870508,17.7037602 99.7435782,16.8329155 99.0981544,15.7264305 C98.6473823,14.9580381 98.3707721,13.6876294 98.4424859,12.7143324 C98.5551789,11.2595095 99.005951,10.2349864 99.9279849,9.31291553 C101.177853,8.04250681 102.847759,7.58147139 104.640603,8.00152589 C105.490923,8.20643052 105.95194,8.45231608 106.628098,9.06702997 C107.427194,9.80468665 107.888211,10.7677384 108.041883,12.0483924 C108.103352,12.5811444 108.144331,13.2573297 108.123842,13.533951 L108.093107,14.0462125 L104.743051,14.0462125 C100.962712,14.0462125 101.147119,13.9949864 101.679849,14.8248501 C102.079397,15.4600545 102.571149,15.746921 103.370245,15.8083924 C104.241055,15.880109 104.978682,15.6956948 105.562637,15.2551499 C106.105612,14.8248501 106.095367,14.8248501 107.130094,15.7674114 L107.785763,16.3718801 L107.263277,16.8431608 C106.238795,17.7959673 105.132354,18.1955313 103.585386,18.1852861 C103.08339,18.1852861 102.417476,18.1135695 102.110132,18.0316076 Z M105.316761,11.8742234 C105.204068,11.3824523 104.773785,10.7370027 104.415217,10.5116076 C103.288286,9.82517711 101.91548,10.3784196 101.444218,11.720545 L101.290546,12.1508447 L103.33951,12.1508447 L105.37823,12.1508447 L105.316761,11.8742234 Z" id="Shape"></path>
                            <path d="M3.16564972,17.9394005 C2.99148776,17.4681199 3.43201507,14.6199455 3.90327684,13.226594 C5.70636535,7.84784741 10.3780038,3.90343324 16.0433898,2.97111717 C17.6415819,2.71498638 20.1208286,2.81743869 21.8931827,3.22724796 C22.6922787,3.41166213 24.1470433,3.96490463 25.1100565,4.43618529 C28.6650094,6.22910082 31.5130697,9.53831063 32.752693,13.3085559 C33.1522411,14.5174932 33.4800753,16.453842 33.439096,17.3451771 L33.4083616,18.0418529 L31.9740866,18.0418529 L30.5398117,18.0418529 L30.4680979,17.119782 C30.2529567,14.1589101 29.1157815,11.6385831 27.025838,9.47683924 C25.4583804,7.83760218 23.5118644,6.73111717 21.2067797,6.13689373 C20.2027872,5.88076294 19.9159322,5.86027248 18.3484746,5.86027248 C17.2727684,5.86027248 16.3712241,5.91149864 15.9921657,5.99346049 C13.4514501,6.55694823 11.4434652,7.62245232 9.73258004,9.33340599 C7.58116761,11.4746594 6.40301318,14.0462125 6.12640301,17.2222343 L6.05468927,18.0418529 L4.64090395,18.0725886 C3.43201507,18.093079 3.22711864,18.0725886 3.16564972,17.9394005 Z" id="Shape"></path>
                            <path d="M44.1859134,17.9291553 C44.1449341,17.8881744 44.1141996,15.5829973 44.1141996,12.8065395 L44.1141996,7.7453951 L42.1984181,7.72490463 L40.2723917,7.69416894 L40.2723917,6.36228883 L40.2723917,5.03040872 L45.5996987,5.03040872 L50.9270056,5.03040872 L50.9270056,6.36228883 L50.9270056,7.69416894 L49.0112241,7.72490463 L47.0851977,7.7453951 L47.0647081,12.8475204 L47.0339736,17.9394005 L45.640678,17.9701362 C44.8825612,17.9803815 44.2268927,17.959891 44.1859134,17.9291553 Z" id="Shape"></path>
                            <path d="M52.3612806,17.8676839 C52.3305461,17.7959673 52.3203013,14.8760763 52.3305461,11.3824523 L52.3612806,5.03040872 L55.8957439,5.03040872 C59.2970245,5.03040872 59.4609416,5.04065395 60.1883239,5.27629428 C62.0119021,5.83978202 63.0158945,7.12043597 63.1388324,9.03629428 C63.2003013,9.93787466 63.0671186,10.7165123 62.7392844,11.3722071 C62.4421846,11.9459401 61.6635782,12.7450681 61.0488889,13.093406 C60.7517891,13.2675749 60.5059134,13.4212534 60.5059134,13.4417439 C60.5059134,13.4827248 61.0693785,14.3125886 62.5753672,16.4845777 C63.0773635,17.2017439 63.4564218,17.8369482 63.4256874,17.8881744 C63.3847081,17.9496458 62.6778154,17.9906267 61.7455367,17.9906267 L60.1370998,17.9906267 L58.7642938,15.9415804 L57.4017326,13.8925341 L56.346516,13.8925341 L55.2810546,13.8925341 L55.260565,15.9210899 L55.2298305,17.9394005 L53.8160452,17.9701362 C52.7505838,17.9906267 52.3920151,17.959891 52.3612806,17.8676839 Z M59.26629,11.0033787 C59.9219586,10.6652861 60.2293032,10.0710627 60.1575895,9.29242507 C60.0961205,8.60599455 59.8707345,8.27814714 59.26629,7.98103542 C58.866742,7.77613079 58.6311111,7.75564033 57.0738983,7.73514986 L55.3322787,7.70441417 L55.3015443,9.51782016 L55.2810546,11.3209809 L57.032919,11.28 C58.6311111,11.2492643 58.8360075,11.2185286 59.26629,11.0033787 Z" id="Shape"></path>
                            <path d="M92.5414689,17.9291553 C92.5004896,17.8881744 92.4697552,15.5829973 92.4697552,12.8065395 L92.4697552,7.7453951 L90.5539736,7.72490463 L88.6279473,7.69416894 L88.6279473,6.36228883 L88.6279473,5.03040872 L93.9552542,5.03040872 L99.2825612,5.03040872 L99.2825612,6.36228883 L99.2825612,7.69416894 L97.3667797,7.72490463 L95.4407533,7.7453951 L95.4202637,12.8475204 L95.3895292,17.9394005 L93.9962335,17.9701362 C93.2381168,17.9803815 92.5824482,17.959891 92.5414689,17.9291553 Z" id="Shape"></path>
                            <path d="M37.5268826,2.44861035 C37.454948,2.29493188 37.5063299,1.90561308 37.6090936,1.90561308 C37.7324101,1.90561308 37.7735155,2.3973842 37.6501991,2.46910082 C37.6090936,2.49983651 37.5577117,2.48959128 37.5268826,2.44861035 Z" id="Shape"></path>
                            <path d="M0.020521438,0.287711171 C-0.0103076784,0.226052938 0.0307978101,0.133565589 0.102732415,0.0719073564 C0.184943392,-2.72484907e-05 0.277430741,-0.0103036206 0.308259858,0.04107824 C0.339088974,0.102736473 0.297983485,0.195223822 0.226048881,0.256882055 C0.143837904,0.32881666 0.0513505544,0.339093032 0.020521438,0.287711171 Z" id="Shape"></path>
                        </g>
                        <g id="layer103" fill="#8CC53E">
                            <path d="M2.01822975,37.5077929 C1.98749529,37.466812 1.83382298,37.3950954 1.66990584,37.3643597 C1.3113371,37.2926431 0.215141243,36.1656676 0.215141243,35.8685559 C0.215141243,35.7456131 0.174161958,35.653406 0.112693032,35.653406 C-0.0307344636,35.653406 -0.0307344636,2.09002725 0.112693032,1.99782016 C0.163917137,1.96708447 0.215141243,1.85438692 0.215141243,1.7519346 C0.215141243,1.50604905 1.51623352,0.204904632 1.76210923,0.204904632 C1.86455744,0.204904632 1.95676083,0.163923706 1.95676083,0.102452316 C1.95676083,0.0307356948 7.76557439,0 19.1680603,0 C28.634275,0 36.3793597,0.0307356948 36.3793597,0.0819618529 C36.3793597,0.122942779 36.5227872,0.215149864 36.6867043,0.286866485 C37.0657627,0.461035422 38.0902448,1.38310627 38.1619586,1.61874659 C38.192693,1.71095368 38.254162,1.93634877 38.2951412,2.10027248 C38.4283239,2.62277929 38.4590584,34.5776567 38.3258757,35.346049 C38.2131827,35.9710082 38.1722034,36.0427248 37.5472693,36.6471935 C37.1477213,37.0467575 36.7686629,37.3233787 36.5842561,37.3643597 C36.4100942,37.3950954 36.246177,37.466812 36.2154426,37.5077929 C36.1437288,37.6307357 2.0899435,37.6307357 2.01822975,37.5077929 Z M21.5243691,27.9694823 C22.6000753,27.6621253 23.8089642,27.0576567 24.792467,26.3302452 C25.2432392,25.9921526 25.6222976,25.6847956 25.6222976,25.6335695 C25.6222976,25.5925886 25.2125047,25.1520436 24.7207533,24.6602725 L23.8089642,23.7586921 L23.2864783,24.1992371 C22.6308098,24.7627248 21.4833898,25.3262125 20.5203766,25.5618529 C19.5368738,25.7974932 17.8567232,25.7360218 16.9141996,25.4286649 C14.8549906,24.7524796 13.0723917,22.959564 12.3450094,20.7978202 C12.1913371,20.3572752 12.1503578,19.9372207 12.1503578,18.8512262 C12.1503578,17.6627793 12.1810923,17.3656676 12.3962335,16.7099728 C12.8879849,15.2346594 14.1378531,13.6876294 15.5004143,12.8782561 C16.5556309,12.253297 17.5391337,11.986921 18.8914501,11.9766757 C20.2745009,11.9664305 20.7764972,12.0791281 22.0058757,12.6631063 C22.7742373,13.0319346 23.0918267,13.2573297 23.7987194,13.9540054 C25.0178531,15.1629428 25.653032,16.4845777 25.8784181,18.267248 L25.939887,18.7487738 L27.2204896,18.7487738 C28.6854991,18.7487738 28.572806,18.8614714 28.3781544,17.5910627 C28.0400753,15.3473569 27.2,13.6568937 25.6837665,12.1303542 C24.1163089,10.573079 22.2927307,9.70223433 19.987646,9.41536785 C19.0861017,9.3026703 18.7890019,9.3026703 17.8054991,9.44610354 C16.3917137,9.66125341 15.6028625,9.90713896 14.4656874,10.5013624 C13.2977778,11.1263215 12.2220716,12.0381471 11.4639548,13.0524251 C10.1013936,14.8760763 9.52768362,16.6075204 9.52768362,18.8717166 C9.53792844,21.5457221 10.5214313,23.8713896 12.4064783,25.6540599 C13.6256121,26.8015259 14.7935217,27.4777112 16.3507345,27.9182561 C17.4879096,28.2563488 17.6006026,28.266594 19.2705085,28.2256131 C20.4076836,28.2051226 20.9404143,28.1436512 21.5243691,27.9694823 Z M6.6079096,17.9189101 C6.86403013,14.8863215 8.07291902,12.3045232 10.2960452,10.0915531 C11.7815443,8.60599455 13.3694915,7.62245232 15.2238041,7.03847411 C16.6888136,6.57743869 17.1908098,6.5159673 19.0143879,6.5159673 C20.5818456,6.5159673 20.8687006,6.53645777 21.872693,6.79258856 C24.2290019,7.39705722 26.114049,8.48305177 27.7941996,10.2247411 C28.7572128,11.2185286 29.6280226,12.4069755 30.1607533,13.4724796 C30.7959322,14.7428883 31.3593974,16.9763488 31.3593974,18.2160218 L31.3593974,18.7487738 L32.64,18.7487738 L33.9206026,18.7487738 L33.9206026,18.093079 C33.9206026,17.7344959 33.8283992,16.9148774 33.725951,16.2694278 C32.926855,11.6180926 29.9661017,7.61220708 25.7759699,5.5119346 C23.5528437,4.38495913 21.4526554,3.89318801 18.9119397,3.89318801 C13.8100188,3.89318801 9.12813559,6.45449591 6.37227872,10.747248 C5.01996233,12.8577657 4.24135593,15.2141689 4.04670433,17.8062125 L3.97499058,18.7487738 L5.25559322,18.7487738 L6.53619586,18.7487738 L6.6079096,17.9189101 Z M22.8561959,18.267248 C22.8561959,17.6115531 22.3849341,16.6382561 21.7804896,16.0337875 C21.2375141,15.480545 20.4589077,15.1014714 19.5778531,14.9375477 C17.5186441,14.5482289 15.346742,16.146485 15.1008663,18.2365123 L15.0393974,18.7487738 L18.952919,18.7487738 L22.8561959,18.7487738 L22.8561959,18.267248 Z" id="Shape"></path>
                            <path d="M45.6816573,29.547248 C45.5894539,29.4550409 44.9952542,27.9080109 44.3600753,26.1048501 C43.2536347,22.9698093 43.2126554,22.8161308 43.3970621,22.6829428 C43.6634275,22.4882834 44.206403,22.5087738 44.4010546,22.7239237 C44.4830132,22.8161308 44.9440301,24.0455586 45.4255367,25.4491553 C45.8967985,26.852752 46.3065913,27.9592371 46.3373258,27.9080109 C46.3680603,27.8567847 46.7676083,26.6785831 47.2388701,25.2749864 C48.1199247,22.6214714 48.160904,22.5395095 48.7551036,22.5395095 C49.4107721,22.5395095 49.4005273,22.6009809 48.2018832,26.0433787 C47.587194,27.7953134 47.0032392,29.3423433 46.900791,29.4755313 C46.6651601,29.7623978 45.9480226,29.813624 45.6816573,29.547248 Z" id="Shape"></path>
                            <path d="M56.9509605,29.5984741 C56.7767985,29.506267 56.7665537,29.2296458 56.7665537,26.1970572 C56.7665537,23.7586921 56.7972881,22.8571117 56.8894915,22.7649046 C57.0841431,22.5702452 59.5429002,22.6009809 60.0244068,22.7956403 C60.7927684,23.1234877 61.1718267,23.6767302 61.1718267,24.4861035 C61.1718267,25.1622888 60.9669303,25.6233243 60.5161582,25.9716621 L60.1575895,26.2482834 L60.4034652,26.5761308 C60.6698305,26.9244687 61.5816196,29.0247411 61.5816196,29.2911172 C61.5816196,29.547248 61.3664783,29.7111717 61.0386441,29.7111717 C60.5571375,29.7111717 60.3829755,29.547248 60.0961205,28.7686104 C59.4097175,26.9552044 59.153597,26.6376022 58.3545009,26.6376022 L57.9959322,26.6376022 L57.9959322,28.0719346 C57.9959322,29.373079 57.9754426,29.506267 57.8012806,29.6087193 C57.5451601,29.7419074 57.1763465,29.7316621 56.9509605,29.5984741 Z M59.4302072,25.4286649 C60.0756309,25.1110627 60.0961205,24.066049 59.4711864,23.7791826 C59.3277589,23.7177112 58.9384557,23.666485 58.6106215,23.666485 L57.9959322,23.666485 L57.9959322,24.639782 L57.9959322,25.613079 L58.5389077,25.613079 C58.8360075,25.613079 59.2253107,25.5311172 59.4302072,25.4286649 Z" id="Shape"></path>
                            <path d="M63.4974011,29.5882289 C63.333484,29.4652861 63.3232392,29.1579292 63.3437288,26.0741144 L63.3744633,22.693188 L63.6613183,22.6009809 C63.8354802,22.5395095 64.0403766,22.5395095 64.2247834,22.6009809 L64.5013936,22.693188 L64.5321281,26.0741144 C64.5526177,29.1579292 64.5423729,29.4652861 64.3784557,29.5882289 C64.2862524,29.6497003 64.0813559,29.7111717 63.9379284,29.7111717 C63.7945009,29.7111717 63.5896045,29.6497003 63.4974011,29.5882289 Z" id="Shape"></path>
                            <path d="M66.8884369,29.5984741 C66.714275,29.506267 66.7040301,29.2296458 66.7040301,26.186812 C66.7040301,23.4923161 66.7347646,22.8468665 66.8474576,22.7546594 C66.939661,22.6726975 67.5441055,22.6419619 68.7632392,22.6624523 L70.545838,22.693188 L70.5765725,23.0312807 C70.6380414,23.6152589 70.5048588,23.666485 69.1525424,23.666485 L67.9334087,23.666485 L67.9334087,24.6910082 L67.9334087,25.7052861 L69.1218079,25.7360218 C70.4638795,25.7667575 70.6277966,25.8589646 70.433145,26.4019619 L70.3409416,26.6888283 L69.1320527,26.719564 L67.9334087,26.7502997 L67.9334087,28.1231608 C67.9334087,29.3833243 67.912919,29.506267 67.7387571,29.6087193 C67.4826365,29.7419074 67.113823,29.7316621 66.8884369,29.5984741 Z" id="Shape"></path>
                            <path d="M72.6152919,29.5882289 C72.4513748,29.4652861 72.4411299,29.1579292 72.4616196,26.0741144 L72.492354,22.693188 L72.779209,22.6009809 C72.953371,22.5395095 73.1582674,22.5395095 73.3426742,22.6009809 L73.6192844,22.693188 L73.6500188,26.0741144 C73.6705085,29.1579292 73.6602637,29.4652861 73.4963465,29.5882289 C73.4041431,29.6497003 73.1992467,29.7111717 73.0558192,29.7111717 C72.9123917,29.7111717 72.7074953,29.6497003 72.6152919,29.5882289 Z" id="Shape"></path>
                            <path d="M50.8450471,29.4857766 C50.6503955,29.2911172 50.6708851,22.9185831 50.8655367,22.7546594 C50.9577401,22.6726975 51.5724294,22.6419619 52.8325424,22.6624523 L54.6663653,22.693188 L54.6663653,23.1542234 L54.6663653,23.6152589 L53.314049,23.6459946 L51.9514878,23.6767302 L51.9514878,24.5885559 L51.9514878,25.5003815 L53.1603766,25.5311172 L54.3590207,25.5618529 L54.3590207,25.9716621 L54.3590207,26.3814714 L53.1603766,26.4122071 L51.9514878,26.4429428 L51.9514878,27.5084469 L51.9514878,28.5841962 L53.2730697,28.5841962 C54.7380791,28.5841962 54.8610169,28.6354223 54.799548,29.2194005 L54.7688136,29.5574932 L52.8735217,29.5882289 C51.480226,29.6087193 50.9372505,29.5779837 50.8450471,29.4857766 Z" id="Shape"></path>
                            <path d="M75.9448588,29.4857766 C75.7502072,29.2911172 75.7706968,22.9185831 75.9653484,22.7546594 C76.0575518,22.6726975 76.6722411,22.6419619 77.932354,22.6624523 L79.766177,22.693188 L79.766177,23.1542234 L79.766177,23.6152589 L78.4138606,23.6459946 L77.0512994,23.6767302 L77.0512994,24.5885559 L77.0512994,25.5003815 L78.2601883,25.5311172 L79.4588324,25.5618529 L79.4588324,25.9716621 L79.4588324,26.3814714 L78.2601883,26.4122071 L77.0512994,26.4429428 L77.0512994,27.5084469 L77.0512994,28.5841962 L78.3728814,28.5841962 C79.8378908,28.5841962 79.9608286,28.6354223 79.8993597,29.2194005 L79.8686252,29.5574932 L77.9733333,29.5882289 C76.5800377,29.6087193 76.0370621,29.5779837 75.9448588,29.4857766 Z" id="Shape"></path>
                            <path d="M81.999548,29.4960218 C81.8151412,29.3116076 81.8048964,22.9493188 81.9893032,22.7649046 C82.1839548,22.5702452 84.7861394,22.6009809 85.380339,22.8058856 C86.0360075,23.0312807 86.8043691,23.7382016 87.1014689,24.4041417 C87.4190584,25.1110627 87.4497928,26.8015259 87.1629379,27.6211444 C86.927307,28.3075749 86.3740866,28.9325341 85.7184181,29.2808719 C85.2266667,29.5370027 85.093484,29.5574932 83.659209,29.5882289 C82.5117891,29.6189646 82.0917514,29.5882289 81.999548,29.4960218 Z M84.9910358,28.3895368 C85.7901318,28.0207084 86.0974765,27.4059946 86.1077213,26.1253406 C86.1179661,25.039346 85.8516008,24.4143869 85.2164218,23.9943324 C84.8680979,23.7586921 84.6632015,23.7074659 83.946064,23.6767302 L83.0957439,23.6459946 L83.0957439,26.1150954 L83.0957439,28.5841962 L83.8436158,28.5841962 C84.3353672,28.5841962 84.7144256,28.5227248 84.9910358,28.3895368 Z" id="Shape"></path>
                        </g>
                    </g>
                </g>
            </g>
        </g>
    </g>
</svg>