<?xml version="1.0" encoding="UTF-8"?>
<svg width="44px" height="60px" viewBox="0 0 44 60" version="1.1" xmlns="http://www.w3.org/2000/svg" xmlns:xlink="http://www.w3.org/1999/xlink">
    <!-- Generator: Sketch 55.1 (78136) - https://sketchapp.com -->
    <title>mark</title>
    <desc>Created with Sketch.</desc>
    <defs>
        <polygon id="path-1" points="0.000959161491 0.0309267193 43.4894627 0.0309267193 43.4894627 60 0.000959161491 60"></polygon>
        <polygon id="path-3" points="0.00937616585 0.0638021148 26.979903 0.0638021148 26.979903 22.5 0.00937616585 22.5"></polygon>
    </defs>
    <g id="💎-Symbols/Style-Guide" stroke="none" stroke-width="1" fill="none" fill-rule="evenodd">
        <g id="Header-/-Desktop" transform="translate(-140.000000, -22.000000)">
            <g id="Header">
                <g id="LOGO-+-disclaimer" transform="translate(140.000000, 22.000000)">
                    <g id="careg-logo-single">
                        <g id="mark">
                            <g id="Group-3" transform="translate(0.500000, 0.000000)">
                                <mask id="mask-2" fill="white">
                                    <use xlink:href="#path-1"></use>
                                </mask>
                                <g id="Clip-2"></g>
                                <path d="M21.7452177,60.0000135 C0.152331056,50.7487847 -5.40372671e-05,32.3669357 0.000959161491,32.1781421 L0.000959161491,6.96278692 C7.10233416,1.48080271 17.9844941,0.089167982 21.8143854,0.0309267193 C21.8164118,0.0329560316 34.9925213,0.362245772 43.4894762,6.95879594 L43.4894762,32.1520316 C43.4844778,32.9271612 43.1165516,50.8511973 21.7452177,60.0000135" id="Fill-1" fill="#005775" mask="url(#mask-2)"></path>
                            </g>
                            <polygon id="Fill-4" fill="#FEFEFE" points="42 10.3426091 38.3128309 10.3426091 37.25 7 36.1871691 10.3426091 32.5 10.3426091 35.4113996 12.7822379 34.2291444 16.5 37.25 14.3229439 40.2708556 16.5 39.0886004 12.7822379"></polygon>
                            <g id="Group-8" transform="translate(15.500000, 37.500000)">
                                <mask id="mask-4" fill="white">
                                    <use xlink:href="#path-3"></use>
                                </mask>
                                <g id="Clip-7"></g>
                                <path d="M26.979903,0.0638021148 C24.7000655,8.51605287 10.1426099,8.90480665 2.59325025,11.9057356 C-4.95830394,14.9074804 6.44600394,22.5000408 6.44600394,22.5000408 C20.4810163,16.3675332 25.3151468,6.31173263 26.979903,0.0638021148" id="Fill-6" fill="#FCB61B" mask="url(#mask-4)"></path>
                            </g>
                            <path d="M38.6203565,34.6774907 C38.9624311,33.0649424 41.7075815,33.1755086 44,33.5654001 L34.2916546,25.8409883 C33.4859372,22.9862953 32.8878623,21.7794723 30.7881344,20.1489924 C30.707987,17.7724273 30.2221858,11.8366985 27.3785685,11.0939289 C24.9239694,10.4527259 22.5369904,13.2397529 21.2870273,15.0401421 C19.9557045,14.8988555 18.4250233,14.9382371 16.766443,15.1150483 C14.5745119,12.7281303 11.6687972,10.5206626 9.68733731,12.6706819 C8.58211103,13.8698587 8.29243533,15.3236626 8.41831393,16.759129 C5.56560433,17.5127929 2.67578444,18.4264869 0,19.348436 L0,32.368727 C0,32.4028306 0.00465253945,33.0208242 0.134976297,34.0661961 L5.0965735,39.3501661 L8.4458604,34.1223589 L14.9511375,40.0441485 L17.2075906,37.037004 L20.8914762,38.0085524 C20.8914762,38.0085524 28.6276561,28.4318517 20.7072045,29.2645494 C12.7868875,30.0972471 26.4270367,22.9952272 26.5554747,22.9263432 C28.2763544,22.0036497 23.1017941,27.6914503 23.1017941,27.6914503 C23.1017941,27.6914503 33.4628359,26.2573372 28.5815208,31.1151467 C23.7004751,35.9729562 33.0999499,40.9911341 33.0999499,40.9911341 C38.1653346,41.176133 41.4278064,38.4046015 41.4278064,38.4046015 C41.4278064,38.4046015 38.0216081,37.4997041 38.6203565,34.6774907" id="Fill-9" fill="#FEFEFE"></path>
                        </g>
                    </g>
                </g>
            </g>
        </g>
    </g>
</svg>