<?xml version="1.0" encoding="UTF-8"?>
<svg width="89px" height="48px" viewBox="0 0 89 48" version="1.1" xmlns="http://www.w3.org/2000/svg" xmlns:xlink="http://www.w3.org/1999/xlink">
    <!-- Generator: Sketch 49.1 (51147) - http://www.bohemiancoding.com/sketch -->
    <title>norton-secured</title>
    <desc>Created with Sketch.</desc>
    <defs>
        <polygon id="path-1" points="0.124912 0.271990588 87.6092343 0.271990588 87.6092343 30.2759435 0.124912 30.2759435"></polygon>
        <polygon id="path-3" points="0 47.9906824 88.7368533 47.9906824 88.7368533 0 0 0"></polygon>
    </defs>
    <g id="Symbols" stroke="none" stroke-width="1" fill="none" fill-rule="evenodd">
        <g id="Footer-/-Desktop" transform="translate(-879.000000, -225.000000)">
            <g id="Footer">
                <g id="Trust-Seals" transform="translate(879.000000, 225.000000)">
                    <g id="norton-secured">
                        <path d="M16.230131,7.36949647 C8.6198301,7.36949647 2.4280739,13.5708141 2.4280739,21.1937788 C2.4280739,28.8164612 8.6198301,35.0183435 16.230131,35.0183435 L73.7592815,35.0183435 C81.3690187,35.0183435 87.5610568,28.8164612 87.5610568,21.1937788 C87.5610568,13.5708141 81.3690187,7.36949647 73.7592815,7.36949647 L16.230131,7.36949647 Z" id="Fill-1" fill="#FEFEFE"></path>
                        <g id="Group-5" transform="translate(1.127619, 5.920094)">
                            <mask id="mask-2" fill="white">
                                <use xlink:href="#path-1"></use>
                            </mask>
                            <g id="Clip-4"></g>
                            <path d="M15.102512,1.44940235 C7.49221105,1.44940235 1.30045486,7.65072 1.30045486,15.2736847 C1.30045486,22.8963671 7.49221105,29.0982494 15.102512,29.0982494 L72.6316625,29.0982494 C80.2413996,29.0982494 86.4334377,22.8963671 86.4334377,15.2736847 C86.4334377,7.65072 80.2413996,1.44940235 72.6316625,1.44940235 L15.102512,1.44940235 Z M72.6316625,30.2759435 L15.102512,30.2759435 C6.8438301,30.2759435 0.124912,23.5454965 0.124912,15.2736847 C0.124912,7.00187294 6.8438301,0.271990588 15.102512,0.271990588 L72.6316625,0.271990588 C80.8903444,0.271990588 87.6092625,7.00187294 87.6092625,15.2736847 C87.6092625,23.5454965 80.8903444,30.2759435 72.6316625,30.2759435 Z" id="Fill-3" fill="#C6C7C9" mask="url(#mask-2)"></path>
                        </g>
                        <path d="M66.8584785,18.92832 C65.7128175,18.92832 64.7830956,17.9985318 64.7830956,16.8507671 C64.7830956,15.7018729 65.7128175,14.7718024 66.8584785,14.7718024 C68.0041394,14.7718024 68.9341432,15.7018729 68.9341432,16.8507671 C68.9341432,17.9985318 68.0041394,18.92832 66.8584785,18.92832 M66.8584785,12.79872 C64.625229,12.79872 62.8142728,14.6128376 62.8142728,16.8507671 C62.8142728,19.0875671 64.625229,20.9002729 66.8584785,20.9002729 C69.0931375,20.9002729 70.9029661,19.0875671 70.9029661,16.8507671 C70.9029661,14.6128376 69.0931375,12.79872 66.8584785,12.79872" id="Fill-6" fill="#231F20"></path>
                        <path d="M48.3089196,18.92832 C47.1643863,18.92832 46.2349463,17.9985318 46.2349463,16.8507671 C46.2349463,15.7018729 47.1643863,14.7718024 48.3089196,14.7718024 C49.4559901,14.7718024 50.3845844,15.7018729 50.3845844,16.8507671 C50.3845844,17.9985318 49.4559901,18.92832 48.3089196,18.92832 M48.3089196,12.79872 C46.0756701,12.79872 44.2649958,14.6128376 44.2649958,16.8507671 C44.2649958,19.0875671 46.0756701,20.9002729 48.3089196,20.9002729 C50.5435787,20.9002729 52.3548168,19.0875671 52.3548168,16.8507671 C52.3548168,14.6128376 50.5435787,12.79872 48.3089196,12.79872" id="Fill-8" fill="#231F20"></path>
                        <path d="M62.5536518,19.0415153 C62.2979642,19.1160565 61.9066804,19.1894682 61.7578347,19.1894682 C61.0666042,19.1894682 60.916067,18.95088 60.916067,18.2881976 L60.916067,14.5456094 L62.5697204,14.5456094 L62.5697204,12.9816565 L60.916067,12.9816565 L60.916067,10.7708329 L59.0554956,10.7708329 L58.6644937,12.9816565 L57.3682956,12.9816565 L57.3682956,12.9827859 L57.2628632,12.9827859 C56.2029013,12.9878682 55.4034194,13.6355859 54.8906347,14.65008 L54.2436632,12.9816565 L52.909408,12.9816565 L52.909408,20.7548329 L55.1897356,20.7548329 L55.1897356,17.3728094 C55.1897356,15.6682447 56.1952899,14.5792094 57.3871832,14.5456094 L58.6346118,14.5456094 L58.6346118,18.4098918 C58.6346118,20.2288094 59.5654613,20.9053271 61.0812632,20.9053271 C61.863549,20.9053271 62.4631604,20.7398682 62.8228709,20.6204329 L62.5536518,19.0415153 Z" id="Fill-10" fill="#231F20"></path>
                        <polyline id="Fill-12" fill="#231F20" points="73.6660274 15.4408376 73.6660274 20.75472 71.4491284 20.75472 71.4491284 12.9815435 72.7946598 12.9815435 73.2454255 14.1688376"></polyline>
                        <path d="M73.2354743,14.17632 C73.9095086,13.3930729 74.831619,12.7998494 75.9118781,12.7998494 C77.7589181,12.7998494 78.5186514,14.2745788 78.5186514,15.6422965 L78.5186514,20.7548612 L76.2357867,20.7548612 L76.2357867,15.7080847 C76.2357867,15.0417318 75.6821257,14.6800376 75.0813867,14.6800376 C74.4420267,14.6800376 74.0310095,15.0468141 73.6698895,15.4384376" id="Fill-14" fill="#231F20"></path>
                        <polygon id="Fill-16" fill="#231F20" points="35.3699421 10.1679529 37.9110316 10.1679529 41.4004488 16.8247059 41.4004488 10.1679529 43.5051497 10.1679529 43.5051497 20.7561882 41.2028335 20.7561882 37.4754888 13.4367529 37.4754888 20.7561882 35.3699421 20.7561882"></polygon>
                        <polygon id="Fill-18" fill="#A6A8AB" points="85.2530179 6.19239529 85.2530179 6.57159529 84.699357 6.57159529 84.699357 8.43653647 84.267197 8.43653647 84.267197 6.57159529 83.7236846 6.57159529 83.7236846 6.19239529"></polygon>
                        <polygon id="Fill-20" fill="#A6A8AB" points="85.5632823 8.43659294 85.5632823 6.19245176 86.1479528 6.19245176 86.5364175 7.66209882 86.9313661 6.19245176 87.5222385 6.19245176 87.5222385 8.43659294 87.1659109 8.43659294 87.1659109 6.68092235 87.1557623 6.68092235 86.7030232 8.43659294 86.3864442 8.43659294 85.9294766 6.68092235 85.9196099 6.68092235 85.9196099 8.43659294"></polygon>
                        <path d="M34.7356564,30.1390306 L35.2631002,29.3173835 C35.6915954,29.6344659 36.3346202,29.92896 37.1188792,29.92896 C37.8811497,29.92896 38.3516488,29.5830776 38.3516488,28.9825129 C38.3516488,28.2915953 37.7571116,28.1086306 36.7800297,27.7681129 C35.9038697,27.4597835 35.0423688,27.0170541 35.0423688,25.7738541 C35.0423688,24.6088659 35.9596869,23.9744188 37.193584,23.9744188 C38.0139269,23.9744188 38.6183307,24.1362071 39.1051802,24.42336 L38.6831688,25.2975247 C38.2746888,25.0849129 37.7867116,24.9406306 37.2133173,24.9406306 C36.5257516,24.9406306 36.1136069,25.2003953 36.1136069,25.7464659 C36.1136069,26.3879718 36.5914354,26.5508894 37.4901478,26.8467953 C38.4274811,27.1511718 39.4589707,27.5854306 39.4589707,28.9627482 C39.4589707,30.1280188 38.6273516,30.8963012 37.1352297,30.8963012 C36.0279078,30.8963012 35.2146126,30.5134306 34.7356564,30.1390306" id="Fill-22" fill="#A6A8AB"></path>
                        <polygon id="Fill-24" fill="#A6A8AB" points="41.4600716 24.0803012 45.4552259 24.0803012 45.4552259 25.0103718 42.5969935 25.0103718 42.5969935 26.8467953 44.854205 26.8467953 44.854205 27.7568188 42.5969935 27.7568188 42.5969935 29.8792659 45.6288792 29.8792659 45.6288792 30.8079247 41.4600716 30.8079247"></polygon>
                        <path d="M47.255075,27.4497882 C47.255075,25.4865882 48.193536,23.976 50.0667931,23.976 C50.9057417,23.976 51.5687817,24.2419765 52.035616,24.7866353 L51.372576,25.5549176 C50.9717074,25.1618824 50.6317303,24.9693176 50.0853989,24.9693176 C48.9856884,24.9693176 48.4779779,25.8705882 48.4779779,27.5356235 C48.4779779,29.0984471 49.0138789,29.8904471 50.0952655,29.8904471 C50.6960046,29.8904471 51.118016,29.5744941 51.488157,29.1817412 L52.1573989,29.9288471 C51.6705493,30.5045647 51.0610712,30.8961882 50.0853989,30.8961882 C48.1537874,30.8961882 47.255075,29.4214588 47.255075,27.4497882" id="Fill-26" fill="#A6A8AB"></path>
                        <path d="M54.0092312,28.2331482 L54.0092312,24.0803012 L55.1548922,24.0803012 L55.1548922,28.4183718 C55.1548922,29.34336 55.383517,29.9487247 56.3580617,29.9487247 C57.3238674,29.9487247 57.5632046,29.34336 57.5632046,28.4183718 L57.5632046,24.0803012 L58.7201417,24.0803012 L58.7201417,28.2331482 C58.7201417,29.90016 58.0796541,30.8963012 56.3493227,30.8963012 C54.6474636,30.8963012 54.0092312,29.90016 54.0092312,28.2331482" id="Fill-28" fill="#A6A8AB"></path>
                        <path d="M63.149373,27.0767153 C64.0010072,27.0767153 64.4390872,26.7994447 64.4390872,26.0224094 C64.4390872,25.2753035 63.9922682,25.0090447 63.2161844,25.0090447 L62.1364891,25.0090447 L62.1364891,27.0767153 L63.149373,27.0767153 Z M65.730211,30.8091388 L64.4875749,30.8091388 L63.1978606,27.95568 L62.1364891,27.95568 L62.1364891,30.8091388 L60.9992853,30.8091388 L60.9992853,24.0803859 L63.190531,24.0803859 C64.5470568,24.0803859 65.606173,24.5677271 65.606173,26.0421741 C65.606173,27.0481976 65.0040244,27.5530447 64.3336549,27.7930447 L65.730211,30.8091388 Z" id="Fill-30" fill="#A6A8AB"></path>
                        <polygon id="Fill-32" fill="#A6A8AB" points="67.6752693 24.0803012 71.6701417 24.0803012 71.6701417 25.0103718 68.8110636 25.0103718 68.8110636 26.8467953 71.065456 26.8467953 71.065456 27.7568188 68.8110636 27.7568188 68.8110636 29.8792659 71.8412579 29.8792659 71.8412579 30.8079247 67.6752693 30.8079247"></polygon>
                        <path d="M75.3728762,29.8792941 C76.9411124,29.8792941 77.4772952,29.1544941 77.4772952,27.42 C77.4772952,25.8981176 77.0564114,25.0089882 75.5143924,25.0089882 L74.9037867,25.0089882 L74.9037867,29.8792941 L75.3728762,29.8792941 Z M73.7617905,24.0803294 L75.4388419,24.0803294 C77.6286781,24.0803294 78.6810286,25.2676235 78.6810286,27.42 C78.6810286,29.6130353 77.6100724,30.8090824 75.4969143,30.8090824 L73.7617905,30.8090824 L73.7617905,24.0803294 Z" id="Fill-34" fill="#A6A8AB"></path>
                        <path d="M16.1613181,10.1281129 C13.2117486,10.1281129 10.4372419,11.2795482 8.34804571,13.3695247 C6.26138667,15.4606306 5.11206095,18.2395482 5.11206095,21.1938071 C5.11206095,24.1475012 6.26138667,26.9264188 8.34804571,29.0189365 C10.4358324,31.1075012 13.210339,32.2589365 16.1613181,32.2600659 C19.1106057,32.2589365 21.8851124,31.1075012 23.9743086,29.0175247 C26.0584305,26.9264188 27.2080381,24.1475012 27.2091657,21.1938071 C27.2080381,18.2395482 26.0584305,15.4606306 23.973181,13.3683953 C21.8839848,11.2795482 19.1094781,10.1281129 16.1613181,10.1281129 M16.1613181,37.3805365 C7.25087238,37.3805365 0,30.1181365 0,21.1938071 C0,12.2691953 7.25087238,5.00820706 16.1613181,5.00820706 C25.0706362,5.00820706 32.3198171,12.2691953 32.3212267,21.1938071 C32.3198171,30.1181365 25.0706362,37.3805365 16.1613181,37.3805365" id="Fill-36" fill="#FEC10E"></path>
                        <mask id="mask-4" fill="white">
                            <use xlink:href="#path-3"></use>
                        </mask>
                        <g id="Clip-39"></g>
                        <polygon id="Fill-38" fill="#FEC10E" mask="url(#mask-4)" points="33.7651429 3.77731765 35.0249752 3.77731765 35.0249752 2.5152 33.7651429 2.5152"></polygon>
                        <polygon id="Fill-40" fill="#FEC10E" mask="url(#mask-4)" points="33.7651429 1.26465882 35.0249752 1.26465882 35.0249752 0 33.7651429 0"></polygon>
                        <polygon id="Fill-41" fill="#FEC10E" mask="url(#mask-4)" points="30.2196267 5.00047059 31.3962971 5.00047059 31.3962971 3.76828235 30.2196267 3.76828235"></polygon>
                        <polygon id="Fill-42" fill="#231F20" mask="url(#mask-4)" points="27.8868648 7.36658824 29.0736838 7.36658824 29.0736838 6.18804706 27.8868648 6.18804706"></polygon>
                        <polygon id="Fill-43" fill="#231F20" mask="url(#mask-4)" points="31.3960152 6.18804706 32.7156114 6.18804706 32.7156114 5.00075294 31.3960152 5.00075294"></polygon>
                        <polygon id="Fill-44" fill="#231F20" mask="url(#mask-4)" points="26.70512 6.18804706 27.8868648 6.18804706 27.8868648 5.05891765 26.70512 5.05891765"></polygon>
                        <polygon id="Fill-45" fill="#231F20" mask="url(#mask-4)" points="30.2196267 7.36658824 31.3962971 7.36658824 31.3962971 6.18804706 30.2196267 6.18804706"></polygon>
                        <polygon id="Fill-46" fill="#231F20" mask="url(#mask-4)" points="32.5182781 2.5152 33.764861 2.5152 33.764861 1.26437647 32.5182781 1.26437647"></polygon>
                        <polygon id="Fill-47" fill="#231F20" mask="url(#mask-4)" points="30.2196267 3.76828235 32.5182781 3.76828235 32.5182781 2.5152 30.2196267 2.5152"></polygon>
                        <polygon id="Fill-48" fill="#231F20" mask="url(#mask-4)" points="29.0736838 6.18804706 30.2193448 6.18804706 30.2193448 3.76856471 29.0736838 3.76856471"></polygon>
                        <path d="M29.0738811,7.36661647 L29.0738811,8.55419294 L27.8870621,8.55419294 L27.8870621,7.36661647 L25.9182392,7.36661647 L25.9182392,8.22214588 L24.8630697,8.22214588 L24.8630697,9.27758118 L26.0411497,9.27758118 L26.0411497,10.4538635 L24.8630697,10.4538635 L24.8630697,9.27758118 L23.6105669,9.27758118 L23.6105669,11.1227576 L22.426285,11.1227576 L22.426285,12.3001694 L21.6406164,12.3001694 L21.6406164,13.4826635 L20.7762964,13.4826635 C19.8056983,14.9285929 17.3725783,19.4357929 16.6379345,21.2708047 C13.9863383,17.5756518 11.9281516,16.1110871 10.3069173,15.5813929 C9.43301257,15.3176753 8.37925257,16.2714635 9.831344,17.7721694 C13.1668411,21.4461459 14.2172183,24.4882165 15.2312297,26.91504 C15.7676945,28.1946635 18.1720602,28.3937224 18.654963,27.0903812 C19.6816602,24.3365929 21.1701173,21.2422871 22.9328678,18.7008282 L22.9328678,17.3842165 L23.8738659,17.3842165 L23.8738659,16.19664 L24.8630697,16.19664 L24.8630697,14.8204518 L26.0448145,14.8204518 L26.0448145,13.4936753 L24.8495383,13.4936753 L24.8495383,12.2877459 L26.0448145,12.2877459 L26.0448145,13.4936753 L27.2141554,13.4936753 L27.2119002,12.3001694 L28.1489516,12.3001694 L28.1489516,10.8593224 L29.2041211,10.8593224 L29.2041211,9.86826353 L30.2195421,9.86826353 L30.2195421,7.36661647 L29.0738811,7.36661647 Z" id="Fill-49" fill="#231F20" mask="url(#mask-4)"></path>
                        <path d="M9.36916114,44.86992 L9.36916114,44.85552 C9.36916114,44.1089788 8.86455162,43.6179671 8.26494019,43.6179671 C7.66532876,43.6179671 7.13873067,44.1160376 7.13873067,44.85552 L7.13873067,44.86992 C7.13873067,45.6170259 7.66532876,46.1086024 8.26494019,46.1086024 C8.87131733,46.1086024 9.36916114,45.6319906 9.36916114,44.86992 Z M6.2761021,42.9293082 L7.16100114,42.9293082 L7.16100114,43.5744847 C7.44600686,43.1712847 7.84800305,42.8488376 8.46988495,42.8488376 C9.38382019,42.8488376 10.2684373,43.5744847 10.2684373,44.85552 L10.2684373,44.86992 C10.2684373,46.1520847 9.39086781,46.8766024 8.46988495,46.8766024 C7.83390781,46.8766024 7.43162971,46.55472 7.16100114,46.1955671 L7.16100114,47.9687435 L6.2761021,47.9687435 L6.2761021,42.9293082 Z" id="Fill-50" fill="#A6A8AB" mask="url(#mask-4)"></path>
                        <path d="M14.2218415,44.8848 L14.2218415,44.8698353 C14.2218415,44.1888 13.731891,43.6252235 13.0372777,43.6252235 C12.3274415,43.6252235 11.8744206,44.1817412 11.8744206,44.8554353 L11.8744206,44.8698353 C11.8744206,45.5438118 12.364371,46.1155765 13.0516549,46.1155765 C13.7682568,46.1155765 14.2218415,45.5514353 14.2218415,44.8848 M10.9892396,44.8848 L10.9892396,44.8698353 C10.9892396,43.7647059 11.867091,42.8487529 13.0516549,42.8487529 C14.2362187,42.8487529 15.1064587,43.7494588 15.1064587,44.8554353 L15.1064587,44.8698353 C15.1064587,45.9690353 14.229171,46.8844235 13.0372777,46.8844235 C11.8597615,46.8844235 10.9892396,45.984 10.9892396,44.8848" id="Fill-51" fill="#A6A8AB" mask="url(#mask-4)"></path>
                        <polygon id="Fill-52" fill="#A6A8AB" mask="url(#mask-4)" points="15.533347 42.9293082 16.4405166 42.9293082 17.2151909 45.5814494 18.0707718 42.9149082 18.8240213 42.9149082 19.6866499 45.5814494 20.476547 42.9293082 21.3611642 42.9293082 20.0965394 46.8260612 19.3063604 46.8260612 18.4440137 44.1818259 17.5732099 46.8260612 16.7841585 46.8260612"></polygon>
                        <path d="M24.6748983,44.5919718 C24.616544,44.0207718 24.2802316,43.5743718 23.6949973,43.5743718 C23.1537402,43.5743718 22.7740145,43.9919718 22.6933897,44.5919718 L24.6748983,44.5919718 Z M21.8155383,44.8777129 L21.8155383,44.8627482 C21.8155383,43.7570541 22.5983878,42.8487247 23.7023269,42.8487247 C24.9308678,42.8487247 25.5524678,43.8155012 25.5524678,44.9293835 C25.5524678,45.0095718 25.5451383,45.0900424 25.5380907,45.1781365 L22.7007192,45.1781365 C22.7957211,45.8075012 23.2414126,46.1593129 23.8119878,46.1593129 C24.243584,46.1593129 24.5508602,45.9986541 24.8575726,45.6982306 L25.3765592,46.1593129 C25.0112107,46.5986541 24.5066011,46.8843953 23.7976107,46.8843953 C22.6787307,46.8843953 21.8155383,46.0709365 21.8155383,44.8777129 Z" id="Fill-53" fill="#A6A8AB" mask="url(#mask-4)"></path>
                        <path d="M26.4739581,42.9293082 L27.3588571,42.9293082 L27.3588571,43.8006494 C27.5998857,43.2226729 28.045859,42.8273788 28.7258133,42.8558965 L28.7258133,43.7935906 L28.6750705,43.7935906 C27.8995505,43.7935906 27.3588571,44.2992847 27.3588571,45.3247906 L27.3588571,46.7966965 L26.4739581,46.7966965 L26.4739581,42.9293082 Z" id="Fill-54" fill="#A6A8AB" mask="url(#mask-4)"></path>
                        <path d="M32.098832,44.5919718 C32.0404777,44.0207718 31.7041653,43.5743718 31.118931,43.5743718 C30.5776739,43.5743718 30.1979482,43.9919718 30.1178872,44.5919718 L32.098832,44.5919718 Z M29.239472,44.8777129 L29.239472,44.8627482 C29.239472,43.7570541 30.0226034,42.8487247 31.1265425,42.8487247 C32.3550834,42.8487247 32.9764015,43.8155012 32.9764015,44.9293835 C32.9764015,45.0095718 32.969072,45.0900424 32.9623063,45.1781365 L30.124653,45.1781365 C30.2199368,45.8075012 30.6659101,46.1593129 31.2359215,46.1593129 C31.6677996,46.1593129 31.9750758,45.9986541 32.2817882,45.6982306 L32.8010568,46.1593129 C32.4351444,46.5986541 31.9308168,46.8843953 31.2218263,46.8843953 C30.1029463,46.8843953 29.239472,46.0709365 29.239472,44.8777129 Z" id="Fill-55" fill="#A6A8AB" mask="url(#mask-4)"></path>
                        <path d="M36.8169029,44.86992 L36.8169029,44.85552 C36.8169029,44.1089788 36.2903048,43.6179671 35.6980229,43.6179671 C35.0910819,43.6179671 34.5867543,44.0869553 34.5867543,44.85552 L34.5867543,44.86992 C34.5867543,45.6170259 35.0984114,46.1086024 35.6980229,46.1086024 C36.2903048,46.1086024 36.8169029,45.6099671 36.8169029,44.86992 M33.6945257,44.86992 L33.6945257,44.85552 C33.6945257,43.5744847 34.5644838,42.8488376 35.4857486,42.8488376 C36.1217257,42.8488376 36.5240038,43.1712847 36.8019619,43.5298729 L36.8019619,41.4497788 L37.6871429,41.4497788 L37.6871429,46.7966965 L36.8019619,46.7966965 L36.8019619,46.1520847 C36.5169562,46.55472 36.1146781,46.8766024 35.4857486,46.8766024 C34.5791429,46.8766024 33.6945257,46.1520847 33.6945257,44.86992" id="Fill-56" fill="#A6A8AB" mask="url(#mask-4)"></path>
                        <path d="M44.074851,44.86992 L44.074851,44.85552 C44.074851,44.1089788 43.5699596,43.6179671 42.9706301,43.6179671 C42.3707368,43.6179671 41.8444206,44.1160376 41.8444206,44.85552 L41.8444206,44.86992 C41.8444206,45.6170259 42.3707368,46.1086024 42.9706301,46.1086024 C43.5772891,46.1086024 44.074851,45.6319906 44.074851,44.86992 M41.8664091,46.1955671 L41.8664091,46.7966965 L40.9815101,46.7966965 L40.9815101,41.4497788 L41.8664091,41.4497788 L41.8664091,43.5744847 C42.1514149,43.1712847 42.553693,42.8488376 43.175293,42.8488376 C44.0892282,42.8488376 44.9741272,43.5744847 44.9741272,44.85552 L44.9741272,44.86992 C44.9741272,46.1520847 44.0962758,46.8766024 43.175293,46.8766024 C42.5393158,46.8766024 42.1370377,46.55472 41.8664091,46.1955671" id="Fill-57" fill="#A6A8AB" mask="url(#mask-4)"></path>
                        <path d="M45.5768678,47.7557647 L45.8759688,47.0967529 C46.0372183,47.1851294 46.2122811,47.2435765 46.3952373,47.2435765 C46.6444411,47.2435765 46.7975154,47.1331765 46.9435421,46.7968941 L45.3352754,42.9292235 L46.277965,42.9292235 L47.3754202,45.8001882 L48.3773097,42.9292235 L49.2982926,42.9292235 L47.7627573,46.9064471 C47.456045,47.6973176 47.1121211,47.9906824 46.4902392,47.9906824 C46.118125,47.9906824 45.8474964,47.9025882 45.5768678,47.7557647" id="Fill-58" fill="#A6A8AB" mask="url(#mask-4)"></path>
                        <polygon id="Fill-59" fill="#A30046" mask="url(#mask-4)" points="51.9133821 41.6697318 52.9073783 41.6697318 54.4508069 45.6099671 55.9857783 41.6697318 56.9586316 41.6697318 54.8310964 46.83312 54.041763 46.83312"></polygon>
                        <path d="M59.9988899,44.5919718 C59.9405356,44.0207718 59.6042232,43.5743718 59.0192709,43.5743718 C58.4780137,43.5743718 58.098288,43.9919718 58.0176632,44.5919718 L59.9988899,44.5919718 Z M57.1398118,44.8777129 L57.1398118,44.8627482 C57.1398118,43.7570541 57.9223794,42.8487247 59.0268823,42.8487247 C60.2554232,42.8487247 60.8764594,43.8155012 60.8764594,44.9293835 C60.8764594,45.0095718 60.8691299,45.0900424 60.8623642,45.1781365 L58.0249928,45.1781365 C58.1202766,45.8075012 58.5662499,46.1593129 59.1359794,46.1593129 C59.5681394,46.1593129 59.8748518,45.9986541 60.1815642,45.6982306 L60.7013966,46.1593129 C60.3352023,46.5986541 59.8311566,46.8843953 59.1216023,46.8843953 C58.0027223,46.8843953 57.1398118,46.0709365 57.1398118,44.8777129 Z" id="Fill-60" fill="#A30046" mask="url(#mask-4)"></path>
                        <path d="M61.7979497,42.9293082 L62.6828488,42.9293082 L62.6828488,43.8006494 C62.9241592,43.2226729 63.3704145,42.8273788 64.0506507,42.8558965 L64.0506507,43.7935906 L63.999344,43.7935906 C63.2241059,43.7935906 62.6828488,44.2992847 62.6828488,45.3247906 L62.6828488,46.7966965 L61.7979497,46.7966965 L61.7979497,42.9293082 Z" id="Fill-61" fill="#A30046" mask="url(#mask-4)"></path>
                        <path d="M64.8101867,46.7966118 L65.6953676,46.7966118 L65.6953676,42.9292235 L64.8101867,42.9292235 L64.8101867,46.7966118 Z M64.773821,42.3354353 L65.72384,42.3354353 L65.72384,41.4943059 L64.773821,41.4943059 L64.773821,42.3354353 Z" id="Fill-62" fill="#A30046" mask="url(#mask-4)"></path>
                        <path d="M66.6129112,46.0500706 L67.1541684,45.4048941 C67.6444008,45.8301176 68.1340693,46.0709647 68.7700465,46.0709647 C69.3262446,46.0709647 69.677216,45.8151529 69.677216,45.4269176 L69.677216,45.4119529 C69.677216,45.0463059 69.4722712,44.8478118 68.5219703,44.6289882 C67.4321265,44.3652706 66.817856,44.0433882 66.817856,43.0980706 L66.817856,43.0831059 C66.817856,42.2041412 67.5485531,41.5965176 68.5653836,41.5965176 C69.3113036,41.5965176 69.9035855,41.8235294 70.4225722,42.2411294 L69.940515,42.9216 C69.4796008,42.5774118 69.0184046,42.3944471 68.5504427,42.3944471 C68.0241265,42.3944471 67.717696,42.6657882 67.717696,43.0026353 L67.717696,43.0176 C67.717696,43.4128941 67.9508312,43.5888 68.9318598,43.8231529 C70.0135284,44.0868706 70.5764922,44.4745412 70.5764922,45.3249882 L70.5764922,45.3385412 C70.5764922,46.2988235 69.8229608,46.8694588 68.747776,46.8694588 C67.9657722,46.8694588 67.2274636,46.5986824 66.6129112,46.0500706" id="Fill-63" fill="#A30046" mask="url(#mask-4)"></path>
                        <path d="M71.5888686,46.7966118 L72.4732038,46.7966118 L72.4732038,42.9292235 L71.5888686,42.9292235 L71.5888686,46.7966118 Z M71.551939,42.3354353 L72.5028038,42.3354353 L72.5028038,41.4943059 L71.551939,41.4943059 L71.551939,42.3354353 Z" id="Fill-64" fill="#A30046" mask="url(#mask-4)"></path>
                        <path d="M76.5186499,44.6796706 L76.5186499,44.6647059 C76.5186499,44.0282824 75.9999451,43.5954353 75.3851109,43.5954353 C74.7711223,43.5954353 74.2885013,44.0206588 74.2885013,44.6582118 L74.2885013,44.6726118 C74.2885013,45.3098824 74.7784518,45.7418824 75.3851109,45.7418824 C75.9999451,45.7418824 76.5186499,45.3028235 76.5186499,44.6796706 M73.5868404,47.5218353 L73.9158232,46.8557647 C74.3254309,47.1115765 74.7643566,47.2648941 75.2906728,47.2648941 C76.0805699,47.2648941 76.5113204,46.8557647 76.5113204,46.0787294 L76.5113204,45.7788706 C76.189949,46.1956235 75.7876709,46.4889882 75.1519756,46.4889882 C74.2448061,46.4889882 73.3968366,45.8150118 73.3968366,44.6796706 L73.3968366,44.6647059 C73.3968366,43.5225882 74.2521356,42.8488941 75.1519756,42.8488941 C75.8026118,42.8488941 76.2048899,43.1493176 76.5045547,43.5079059 L76.5045547,42.9293647 L77.3888899,42.9293647 L77.3888899,46.0053176 C77.3888899,46.6572706 77.2214385,47.1403765 76.8995032,47.4628235 C76.5482499,47.8143529 76.0075566,47.9834824 75.3123794,47.9834824 C74.6766842,47.9834824 74.0838385,47.8219765 73.5868404,47.5218353" id="Fill-65" fill="#A30046" mask="url(#mask-4)"></path>
                        <path d="M78.5261219,42.9293082 L79.4104571,42.9293082 L79.4104571,43.5298729 C79.659661,43.1642259 80.0168343,42.8488376 80.6170095,42.8488376 C81.4875314,42.8488376 81.991859,43.4350024 81.991859,44.3351435 L81.991859,46.7966965 L81.1066781,46.7966965 L81.1066781,44.5991435 C81.1066781,43.9985788 80.8072952,43.6543906 80.280979,43.6543906 C79.7684762,43.6543906 79.4104571,44.0135435 79.4104571,44.6141082 L79.4104571,46.7966965 L78.5261219,46.7966965 L78.5261219,42.9293082 Z" id="Fill-66" fill="#A30046" mask="url(#mask-4)"></path>
                    </g>
                </g>
            </g>
        </g>
    </g>
</svg>