<?xml version="1.0" encoding="UTF-8"?>
<svg width="118px" height="129px" viewBox="0 0 118 129" version="1.1" xmlns="http://www.w3.org/2000/svg" xmlns:xlink="http://www.w3.org/1999/xlink">
    <!-- Generator: Sketch 49.1 (51147) - http://www.bohemiancoding.com/sketch -->
    <title>undraw_select_13cv</title>
    <desc>Created with Sketch.</desc>
    <defs>
        <linearGradient x1="50.003715%" y1="100%" x2="50.003715%" y2="-0.00137209972%" id="linearGradient-1">
            <stop stop-color="#808080" stop-opacity="0.25" offset="0%"></stop>
            <stop stop-color="#808080" stop-opacity="0.12" offset="54%"></stop>
            <stop stop-color="#808080" stop-opacity="0.1" offset="100%"></stop>
        </linearGradient>
        <linearGradient x1="33312%" y1="54089%" x2="33312%" y2="29460%" id="linearGradient-2">
            <stop stop-color="#808080" stop-opacity="0.25" offset="0%"></stop>
            <stop stop-color="#808080" stop-opacity="0.12" offset="54%"></stop>
            <stop stop-color="#808080" stop-opacity="0.1" offset="100%"></stop>
        </linearGradient>
        <linearGradient x1="17682%" y1="46353%" x2="17682%" y2="34986%" id="linearGradient-3">
            <stop stop-color="#808080" stop-opacity="0.25" offset="0%"></stop>
            <stop stop-color="#808080" stop-opacity="0.12" offset="54%"></stop>
            <stop stop-color="#808080" stop-opacity="0.1" offset="100%"></stop>
        </linearGradient>
    </defs>
    <g id="----▶-1.0---Search" stroke="none" stroke-width="1" fill="none" fill-rule="evenodd">
        <g id="careg-01-search-opt-a-dr3" transform="translate(-233.000000, -860.000000)" fill-rule="nonzero">
            <g id="STEPS" transform="translate(157.000000, 793.000000)">
                <g id="1">
                    <g id="undraw_select_13cv" transform="translate(76.000000, 67.000000)">
                        <rect id="Rectangle-path" fill="url(#linearGradient-1)" x="23.2161019" y="0" width="71.4315742" height="128.966379" rx="2.7144856"></rect>
                        <rect id="Rectangle-path" fill="#FFFFFF" x="24.182039" y="1.74300412" width="69.5014693" height="125.48214" rx="2.41366255"></rect>
                        <path d="M76.393943,4.88925926 C75.9785038,7.63858528 73.6205483,9.67402994 70.8406897,9.68296296 L46.8337931,9.68296296 C44.0539344,9.67402994 41.6959789,7.63858528 41.2805397,4.88925926 L28.565907,4.88925926 C27.1081403,4.88925926 25.9263868,6.07130122 25.9263868,7.52942387 L25.9263868,121.438724 C25.9263868,122.896847 27.1081403,124.078889 28.565907,124.078889 L89.2996402,124.078889 C90.757407,124.078889 91.9391604,122.896847 91.9391604,121.438724 L91.9391604,7.52942387 C91.9391604,6.07130122 90.757407,4.88925926 89.2996402,4.88925926 L76.393943,4.88925926 Z" id="Shape" fill="#3887B4" opacity="0.2"></path>
                        <rect id="Rectangle-path" fill="#DBDBDB" x="51.2866567" y="6.39160494" width="15.4886057" height="1" rx="0.353909465"></rect>
                        <ellipse id="Oval" fill="#DBDBDB" cx="70.0658171" cy="6.7791358" rx="1" ry="1"></ellipse>
                        <ellipse id="Oval" fill="#FFFFFF" cx="35.9961919" cy="29.1586008" rx="7.08884558" ry="7.09057613"></ellipse>
                        <rect id="Rectangle-path" fill="#FFFFFF" x="49.9545127" y="23.8393416" width="12.627946" height="2.21547325"></rect>
                        <rect id="Rectangle-path" fill="#FFFFFF" x="49.9545127" y="28.0490947" width="34.7843478" height="2.21547325"></rect>
                        <rect id="Rectangle-path" fill="#FFFFFF" x="49.9545127" y="32.2606173" width="34.7843478" height="2.21547325"></rect>
                        <ellipse id="Oval" fill="#FFFFFF" cx="35.9961919" cy="50.2109053" rx="7.08884558" ry="7.09057613"></ellipse>
                        <rect id="Rectangle-path" fill="#FFFFFF" x="49.9545127" y="44.8916461" width="12.627946" height="2.21547325"></rect>
                        <rect id="Rectangle-path" fill="#FFFFFF" x="49.9545127" y="49.1031687" width="34.7843478" height="2.21547325"></rect>
                        <rect id="Rectangle-path" fill="#FFFFFF" x="49.9545127" y="53.3129218" width="34.7843478" height="2.21547325"></rect>
                        <ellipse id="Oval" fill="#FFFFFF" cx="35.9961919" cy="71.2632099" rx="7.08884558" ry="7.09057613"></ellipse>
                        <rect id="Rectangle-path" fill="#FFFFFF" x="49.9545127" y="65.9439506" width="12.627946" height="2.21547325"></rect>
                        <rect id="Rectangle-path" fill="#FFFFFF" x="49.9545127" y="70.1554733" width="34.7843478" height="2.21547325"></rect>
                        <rect id="Rectangle-path" fill="#FFFFFF" x="49.9545127" y="74.3652263" width="34.7843478" height="2.21547325"></rect>
                        <ellipse id="Oval" fill="#FFFFFF" cx="35.9961919" cy="92.3155144" rx="7.08884558" ry="7.09057613"></ellipse>
                        <rect id="Rectangle-path" fill="#FFFFFF" x="49.9545127" y="86.9962551" width="12.627946" height="2.21547325"></rect>
                        <rect id="Rectangle-path" fill="#FFFFFF" x="49.9545127" y="91.2077778" width="34.7843478" height="2.21547325"></rect>
                        <rect id="Rectangle-path" fill="#FFFFFF" x="49.9545127" y="95.4175309" width="34.7843478" height="2.21547325"></rect>
                        <ellipse id="Oval" fill="#FFFFFF" cx="35.9961919" cy="113.367819" rx="7.08884558" ry="7.09057613"></ellipse>
                        <rect id="Rectangle-path" fill="#FFFFFF" x="49.9545127" y="108.050329" width="12.627946" height="2.21547325"></rect>
                        <rect id="Rectangle-path" fill="#FFFFFF" x="49.9545127" y="112.260082" width="34.7843478" height="2.21547325"></rect>
                        <rect id="Rectangle-path" fill="#FFFFFF" x="49.9545127" y="116.469835" width="34.7843478" height="2.21547325"></rect>
                        <rect id="Rectangle-path" fill="url(#linearGradient-2)" x="0" y="52.1308642" width="117.865547" height="43.5821811"></rect>
                        <rect id="Rectangle-path" fill="#FFFFFF" x="0.83856072" y="52.9696296" width="116.190195" height="40.2288889"></rect>
                        <ellipse id="Oval" fill="url(#linearGradient-3)" cx="31.2814993" cy="71.9674897" rx="10.0556522" ry="10.058107"></ellipse>
                        <ellipse id="Oval" fill="#3887B4" cx="31.2814993" cy="71.9674897" rx="8.93757121" ry="8.93975309"></ellipse>
                        <g id="Group" opacity="0.2" transform="translate(48.827586, 65.119342)" fill="#3887B4">
                            <rect id="Rectangle-path" x="0.0495352324" y="0.141563786" width="15.9202699" height="2.79411523"></rect>
                            <rect id="Rectangle-path" x="0.0495352324" y="5.45020576" width="43.8510645" height="2.79411523"></rect>
                            <rect id="Rectangle-path" x="0.0495352324" y="10.7588477" width="43.8510645" height="2.79411523"></rect>
                        </g>
                        <polygon id="Shape" fill="#FFFFFF" points="37.1478861 68.3823868 35.1841679 66.8835802 30.0112744 73.6644856 27.124078 71.4596296 25.6256372 73.4238272 29.4964618 76.3789712 29.5070765 76.3648148 30.4853973 77.1115638"></polygon>
                    </g>
                </g>
            </g>
        </g>
    </g>
</svg>