<?xml version="1.0" encoding="UTF-8"?>
<svg width="221px" height="128px" viewBox="0 0 221 128" version="1.1" xmlns="http://www.w3.org/2000/svg" xmlns:xlink="http://www.w3.org/1999/xlink">
    <!-- Generator: Sketch 49.1 (51147) - http://www.bohemiancoding.com/sketch -->
    <title>undraw_safe_bnk7</title>
    <desc>Created with Sketch.</desc>
    <defs>
        <linearGradient x1="0%" y1="50.0010198%" x2="100%" y2="50.0010198%" id="linearGradient-1">
            <stop stop-color="#808080" stop-opacity="0.25" offset="0%"></stop>
            <stop stop-color="#808080" stop-opacity="0.12" offset="54%"></stop>
            <stop stop-color="#808080" stop-opacity="0.1" offset="100%"></stop>
        </linearGradient>
        <linearGradient x1="78597%" y1="44614%" x2="78597%" y2="32191%" id="linearGradient-2">
            <stop stop-color="#808080" stop-opacity="0.25" offset="0%"></stop>
            <stop stop-color="#808080" stop-opacity="0.12" offset="54%"></stop>
            <stop stop-color="#808080" stop-opacity="0.1" offset="100%"></stop>
        </linearGradient>
        <linearGradient x1="66092%" y1="51819%" x2="66092%" y2="49417%" id="linearGradient-3">
            <stop stop-color="#808080" stop-opacity="0.25" offset="0%"></stop>
            <stop stop-color="#808080" stop-opacity="0.12" offset="54%"></stop>
            <stop stop-color="#808080" stop-opacity="0.1" offset="100%"></stop>
        </linearGradient>
        <linearGradient x1="43366%" y1="60523%" x2="43366%" y2="23523%" id="linearGradient-4">
            <stop stop-color="#808080" stop-opacity="0.25" offset="0%"></stop>
            <stop stop-color="#808080" stop-opacity="0.12" offset="54%"></stop>
            <stop stop-color="#808080" stop-opacity="0.1" offset="100%"></stop>
        </linearGradient>
        <linearGradient x1="42836%" y1="41371%" x2="42836%" y2="29146%" id="linearGradient-5">
            <stop stop-color="#808080" stop-opacity="0.25" offset="0%"></stop>
            <stop stop-color="#808080" stop-opacity="0.12" offset="54%"></stop>
            <stop stop-color="#808080" stop-opacity="0.1" offset="100%"></stop>
        </linearGradient>
        <linearGradient x1="29522%" y1="48461%" x2="29522%" y2="46098%" id="linearGradient-6">
            <stop stop-color="#808080" stop-opacity="0.25" offset="0%"></stop>
            <stop stop-color="#808080" stop-opacity="0.12" offset="54%"></stop>
            <stop stop-color="#808080" stop-opacity="0.1" offset="100%"></stop>
        </linearGradient>
        <linearGradient x1="45507%" y1="46448%" x2="45507%" y2="1048%" id="linearGradient-7">
            <stop stop-color="#808080" stop-opacity="0.25" offset="0%"></stop>
            <stop stop-color="#808080" stop-opacity="0.12" offset="54%"></stop>
            <stop stop-color="#808080" stop-opacity="0.1" offset="100%"></stop>
        </linearGradient>
        <linearGradient x1="44907%" y1="22948%" x2="44907%" y2="7948%" id="linearGradient-8">
            <stop stop-color="#808080" stop-opacity="0.25" offset="0%"></stop>
            <stop stop-color="#808080" stop-opacity="0.12" offset="54%"></stop>
            <stop stop-color="#808080" stop-opacity="0.1" offset="100%"></stop>
        </linearGradient>
        <linearGradient x1="29807%" y1="31648%" x2="29807%" y2="28748%" id="linearGradient-9">
            <stop stop-color="#808080" stop-opacity="0.25" offset="0%"></stop>
            <stop stop-color="#808080" stop-opacity="0.12" offset="54%"></stop>
            <stop stop-color="#808080" stop-opacity="0.1" offset="100%"></stop>
        </linearGradient>
        <linearGradient x1="45707%" y1="51748%" x2="45707%" y2="36448%" id="linearGradient-10">
            <stop stop-color="#808080" stop-opacity="0.25" offset="0%"></stop>
            <stop stop-color="#808080" stop-opacity="0.12" offset="54%"></stop>
            <stop stop-color="#808080" stop-opacity="0.1" offset="100%"></stop>
        </linearGradient>
        <linearGradient x1="61123%" y1="56474%" x2="61123%" y2="46474%" id="linearGradient-11">
            <stop stop-color="#808080" stop-opacity="0.25" offset="0%"></stop>
            <stop stop-color="#808080" stop-opacity="0.12" offset="54%"></stop>
            <stop stop-color="#808080" stop-opacity="0.1" offset="100%"></stop>
        </linearGradient>
        <linearGradient x1="61123%" y1="66074%" x2="61123%" y2="60274%" id="linearGradient-12">
            <stop stop-color="#808080" stop-opacity="0.25" offset="0%"></stop>
            <stop stop-color="#808080" stop-opacity="0.12" offset="54%"></stop>
            <stop stop-color="#808080" stop-opacity="0.1" offset="100%"></stop>
        </linearGradient>
    </defs>
    <g id="----▶-1.0---Search" stroke="none" stroke-width="1" fill="none" fill-rule="evenodd">
        <g id="careg-01-search-opt-a-dr3" transform="translate(-467.000000, -861.000000)" fill-rule="nonzero">
            <g id="STEPS" transform="translate(157.000000, 793.000000)">
                <g id="2" transform="translate(285.000000, 0.000000)">
                    <g id="undraw_safe_bnk7" transform="translate(25.000000, 68.000000)">
                        <rect id="Rectangle-path" fill="#F5F5F5" transform="translate(160.390267, 23.394232) rotate(-81.360000) translate(-160.390267, -23.394232) " x="157.941281" y="-34.6139373" width="4.89797101" height="116.016339"></rect>
                        <rect id="Rectangle-path" fill="url(#linearGradient-1)" transform="translate(154.245283, 65.226491) rotate(-81.360000) translate(-154.245283, -65.226491) " x="107.926443" y="4.76683782" width="92.6376812" height="120.919306"></rect>
                        <rect id="Rectangle-path" fill="#F5F5F5" transform="translate(153.674219, 67.617777) rotate(-81.360000) translate(-153.674219, -67.617777) " x="111.43661" y="9.60960733" width="84.4752174" height="116.016339"></rect>
                        <ellipse id="Oval" fill="#FF5252" transform="translate(105.896539, 15.105100) rotate(-81.360000) translate(-105.896539, -15.105100) " cx="105.896539" cy="15.1051001" rx="1.1973913" ry="1.19861272"></ellipse>
                        <ellipse id="Oval" fill="#FFFF00" transform="translate(109.151588, 15.598816) rotate(-81.360000) translate(-109.151588, -15.598816) " cx="109.151588" cy="15.5988161" rx="1.1973913" ry="1.19861272"></ellipse>
                        <ellipse id="Oval" fill="#69F0AE" transform="translate(112.406638, 16.094998) rotate(-81.360000) translate(-112.406638, -16.094998) " cx="112.406638" cy="16.0949983" rx="1.1973913" ry="1.19861272"></ellipse>
                        <rect id="Rectangle-path" fill="url(#linearGradient-2)" transform="translate(155.580191, 48.281955) rotate(-81.360000) translate(-155.580191, -48.281955) " x="140.276495" y="-3.80343999" width="30.6073913" height="104.17079"></rect>
                        <rect id="Rectangle-path" fill="#3887B4" transform="translate(155.672124, 48.398223) rotate(8.640000) translate(-155.672124, -48.398223) " x="104.762052" y="34.2023081" width="101.820145" height="28.3918304"></rect>
                        <rect id="Rectangle-path" fill="url(#linearGradient-3)" transform="translate(120.597840, 73.431914) rotate(-81.360000) translate(-120.597840, -73.431914) " x="117.638854" y="69.9593903" width="5.91797101" height="6.94504817"></rect>
                        <rect id="Rectangle-path" fill="#3887B4" transform="translate(120.720641, 73.347188) rotate(8.640000) translate(-120.720641, -73.347188) " x="117.456149" y="70.8957049" width="6.52898551" height="4.90296724"></rect>
                        <rect id="Rectangle-path" fill="#FF5252" transform="translate(119.460404, 81.626837) rotate(8.640000) translate(-119.460404, -81.626837) " x="116.195911" y="79.1753531" width="6.52898551" height="4.90296724"></rect>
                        <rect id="Rectangle-path" fill="#FF9800" transform="translate(118.205065, 89.906856) rotate(8.640000) translate(-118.205065, -89.906856) " x="114.940572" y="87.4553719" width="6.52898551" height="4.90296724"></rect>
                        <rect id="Rectangle-path" fill="#3887B4" opacity="0.4" transform="translate(160.661888, 79.421456) rotate(8.640000) translate(-160.661888, -79.421456) " x="134.340221" y="77.9922461" width="52.6433333" height="2.85842004"></rect>
                        <rect id="Rectangle-path" fill="#3887B4" opacity="0.4" transform="translate(159.404086, 87.701475) rotate(8.640000) translate(-159.404086, -87.701475) " x="133.082419" y="86.2722649" width="52.6433333" height="2.85842004"></rect>
                        <rect id="Rectangle-path" fill="#3887B4" opacity="0.4" transform="translate(158.148747, 95.981494) rotate(8.640000) translate(-158.148747, -95.981494) " x="131.827081" y="94.5522836" width="52.6433333" height="2.85842004"></rect>
                        <rect id="Rectangle-path" fill="#F5F5F5" transform="translate(63.666061, 18.257909) rotate(-12.600000) translate(-63.666061, -18.257909) " x="1.96837961" y="15.8458854" width="123.395362" height="4.82404624"></rect>
                        <rect id="Rectangle-path" fill="url(#linearGradient-4)" transform="translate(72.943794, 58.814483) rotate(-12.600000) translate(-72.943794, -58.814483) " x="8.63944601" y="13.1882792" width="128.608696" height="91.2524085"></rect>
                        <rect id="Rectangle-path" fill="#F5F5F5" transform="translate(73.257710, 61.218710) rotate(-12.600000) translate(-73.257710, -61.218710) " x="11.5600286" y="19.6125442" width="123.395362" height="83.2123314"></rect>
                        <ellipse id="Oval" fill="#FF5252" transform="translate(6.394074, 31.072265) rotate(-12.600000) translate(-6.394074, -31.072265) " cx="6.39407395" cy="31.0722655" rx="1.27376812" ry="1.17888247"></ellipse>
                        <ellipse id="Oval" fill="#FFFF00" transform="translate(9.816061, 30.308865) rotate(-12.600000) translate(-9.816061, -30.308865) " cx="9.81606056" cy="30.3088647" rx="1.27376812" ry="1.17888247"></ellipse>
                        <ellipse id="Oval" fill="#69F0AE" transform="translate(13.235643, 29.543536) rotate(-12.600000) translate(-13.235643, -29.543536) " cx="13.2356427" cy="29.5435357" rx="1.27376812" ry="1.17888247"></ellipse>
                        <rect id="Rectangle-path" fill="url(#linearGradient-5)" transform="translate(68.036475, 42.821224) rotate(-12.600000) translate(-68.036475, -42.821224) " x="12.6386488" y="27.7460797" width="110.795652" height="30.150289"></rect>
                        <rect id="Rectangle-path" fill="#3887B4" transform="translate(68.165041, 42.893847) rotate(-12.600000) translate(-68.165041, -42.893847) " x="13.9621428" y="28.9248292" width="108.405797" height="27.9380347"></rect>
                        <rect id="Rectangle-path" fill="url(#linearGradient-6)" transform="translate(42.485459, 78.915018) rotate(-12.600000) translate(-42.485459, -78.915018) " x="38.7922707" y="76.0011064" width="7.38637681" height="5.82782274"></rect>
                        <rect id="Rectangle-path" fill="#3887B4" transform="translate(43.126783, 79.157370) rotate(-12.652557) translate(-43.126783, -79.157370) " x="39.6351432" y="76.7347576" width="6.98327873" height="4.84522555"></rect>
                        <rect id="Rectangle-path" fill="#FF5252" transform="translate(44.365786, 86.836006) rotate(-12.600000) translate(-44.365786, -86.836006) " x="40.8894092" y="84.4239834" width="6.95275362" height="4.82404624"></rect>
                        <rect id="Rectangle-path" fill="#FF9800" transform="translate(46.764980, 95.301155) rotate(-12.652557) translate(-46.764980, -95.301155) " x="43.2733403" y="92.8785418" width="6.98327873" height="4.84522555"></rect>
                        <rect id="Rectangle-path" fill="#3887B4" opacity="0.4" transform="translate(84.546333, 69.399810) rotate(-12.600000) translate(-84.546333, -69.399810) " x="56.5222023" y="67.992797" width="56.0482609" height="2.81402697"></rect>
                        <rect id="Rectangle-path" fill="#3887B4" opacity="0.4" transform="translate(86.341948, 77.443434) rotate(-12.600000) translate(-86.341948, -77.443434) " x="58.3178173" y="76.0364209" width="56.0482609" height="2.81402697"></rect>
                        <rect id="Rectangle-path" fill="#3887B4" opacity="0.4" transform="translate(88.137563, 85.484592) rotate(-12.600000) translate(-88.137563, -85.484592) " x="60.1134323" y="84.0775785" width="56.0482609" height="2.81402697"></rect>
                        <rect id="Rectangle-path" fill="#F5F5F5" x="42.1476812" y="4.80431599" width="139.942029" height="5.91907514"></rect>
                        <rect id="Rectangle-path" fill="url(#linearGradient-7)" x="39.4375362" y="2.83129094" width="145.855072" height="111.969171"></rect>
                        <rect id="Rectangle-path" fill="#FFFFFF" x="42.1476812" y="10.7233911" width="139.942029" height="102.104046"></rect>
                        <ellipse id="Oval" fill="#FF5252" cx="45.5649275" cy="7.76385356" rx="1.44623188" ry="1.44770713"></ellipse>
                        <ellipse id="Oval" fill="#FFFF00" cx="49.5389855" cy="7.76385356" rx="1.44623188" ry="1.44770713"></ellipse>
                        <ellipse id="Oval" fill="#69F0AE" cx="53.5130435" cy="7.76385356" rx="1.44623188" ry="1.44770713"></ellipse>
                        <rect id="Rectangle-path" fill="url(#linearGradient-8)" x="48.0607246" y="19.848632" width="125.652174" height="36.9942197"></rect>
                        <rect id="Rectangle-path" fill="#3887B4" x="49.5389855" y="21.3284008" width="122.942029" height="34.2813102"></rect>
                        <rect id="Rectangle-path" fill="url(#linearGradient-9)" x="69.4955072" y="71.1472832" width="8.37681159" height="7.1522158"></rect>
                        <rect id="Rectangle-path" fill="#3887B4" x="69.8650725" y="71.6405395" width="7.88405797" height="5.91907514"></rect>
                        <rect id="Rectangle-path" fill="#FF5252" x="69.8650725" y="81.7522929" width="7.88405797" height="5.91907514"></rect>
                        <rect id="Rectangle-path" fill="#FF9800" x="69.8650725" y="91.8640462" width="7.88405797" height="5.91907514"></rect>
                        <rect id="Rectangle-path" fill="#3887B4" opacity="0.4" x="90.8071014" y="72.8736802" width="63.5652174" height="3.45279383"></rect>
                        <rect id="Rectangle-path" fill="#3887B4" opacity="0.4" x="90.8071014" y="82.9854335" width="63.5652174" height="3.45279383"></rect>
                        <rect id="Rectangle-path" fill="#3887B4" opacity="0.4" x="90.8071014" y="93.0971869" width="63.5652174" height="3.45279383"></rect>
                        <rect id="Rectangle-path" fill="url(#linearGradient-10)" x="89.9447826" y="90.1376493" width="45.826087" height="37.734104"></rect>
                        <path d="M100.519275,84.1371869 C100.519275,77.0427434 106.264598,71.2915607 113.351812,71.2915607 C120.439026,71.2915607 126.184348,77.0427434 126.184348,84.1371869 L126.184348,92.3573025 L129.776522,92.3573025 L129.776522,84.1371869 C129.848979,78.2152313 126.73439,72.7118159 121.622787,69.7297023 C116.511184,66.7475887 110.192439,66.7475887 105.080836,69.7297023 C99.9692328,72.7118159 96.8546442,78.2152313 96.9271014,84.1371869 L96.9271014,92.3573025 L100.519275,92.3573025 L100.519275,84.1371869 Z" id="Shape" fill="url(#linearGradient-11)"></path>
                        <path d="M101.031739,83.9719461 C101.031739,77.1614983 106.547072,71.6405395 113.35058,71.6405395 C120.154087,71.6405395 125.66942,77.1614983 125.66942,83.9719461 L125.66942,91.8640462 L129.118696,91.8640462 L129.118696,83.9719461 C129.118696,75.2545729 122.05907,68.1877457 113.35058,68.1877457 C104.64209,68.1877457 97.5824638,75.2545729 97.5824638,83.9719461 L97.5824638,91.8640462 L101.031739,91.8640462 L101.031739,83.9719461 Z" id="Shape" fill="#FFFFFF"></path>
                        <rect id="Rectangle-path" fill="#3887B4" x="91.9157971" y="91.37079" width="42.8695652" height="35.0211946"></rect>
                        <rect id="Rectangle-path" fill="#FFFFFF" x="91.9157971" y="91.37079" width="42.8695652" height="35.0211946"></rect>
                        <rect id="Rectangle-path" fill="#3887B4" x="91.9157971" y="98.2763776" width="42.8695652" height="21.2100193"></rect>
                        <path d="M116.496812,104.876146 C116.50345,103.459505 115.563668,102.213049 114.200888,101.831005 C112.838109,101.448962 111.388302,102.025518 110.658955,103.239554 C109.929608,104.45359 110.100529,106.005806 111.076522,107.031676 L111.076522,113.744894 C111.076522,115.008913 112.100168,116.033603 113.362899,116.033603 C114.62563,116.033603 115.649275,115.008913 115.649275,113.744894 L115.649275,107.031676 C116.196585,106.447986 116.499859,105.676674 116.496812,104.876146 Z" id="Shape" fill="url(#linearGradient-12)"></path>
                        <path d="M116.060725,105.428593 C116.062918,104.209835 115.252925,103.1392 114.08038,102.811009 C112.907835,102.482817 111.66057,102.977632 111.030954,104.020777 C110.401337,105.063922 110.543925,106.39933 111.379565,107.285703 L111.379565,113.074066 C111.379565,114.163737 112.262018,115.047091 113.35058,115.047091 C114.439141,115.047091 115.321594,114.163737 115.321594,113.074066 L115.321594,107.285703 C115.795139,106.783414 116.059479,106.119242 116.060725,105.428593 Z" id="Shape" fill="#000000" opacity="0.2"></path>
                    </g>
                </g>
            </g>
        </g>
    </g>
</svg>