<?xml version="1.0" encoding="UTF-8"?>
<svg width="110px" height="128px" viewBox="0 0 110 128" version="1.1" xmlns="http://www.w3.org/2000/svg" xmlns:xlink="http://www.w3.org/1999/xlink">
    <!-- Generator: Sketch 49.1 (51147) - http://www.bohemiancoding.com/sketch -->
    <title>undraw_relaxation_1_wbr7</title>
    <desc>Created with Sketch.</desc>
    <defs>
        <linearGradient x1="148.200704%" y1="87.5374914%" x2="-52.5081878%" y2="13.9655556%" id="linearGradient-1">
            <stop stop-color="#808080" stop-opacity="0.25" offset="0%"></stop>
            <stop stop-color="#808080" stop-opacity="0.12" offset="54%"></stop>
            <stop stop-color="#808080" stop-opacity="0.1" offset="100%"></stop>
        </linearGradient>
        <linearGradient x1="66416%" y1="37734%" x2="66416%" y2="6009%" id="linearGradient-2">
            <stop stop-color="#808080" stop-opacity="0.25" offset="0%"></stop>
            <stop stop-color="#808080" stop-opacity="0.12" offset="54%"></stop>
            <stop stop-color="#808080" stop-opacity="0.1" offset="100%"></stop>
        </linearGradient>
        <linearGradient x1="49333%" y1="82929%" x2="49333%" y2="33718%" id="linearGradient-3">
            <stop stop-color="#808080" stop-opacity="0.25" offset="0%"></stop>
            <stop stop-color="#808080" stop-opacity="0.12" offset="54%"></stop>
            <stop stop-color="#808080" stop-opacity="0.1" offset="100%"></stop>
        </linearGradient>
    </defs>
    <g id="----▶-1.0---Search" stroke="none" stroke-width="1" fill="none" fill-rule="evenodd">
        <g id="careg-01-search-opt-a-dr3" transform="translate(-1092.000000, -861.000000)">
            <g id="STEPS" transform="translate(157.000000, 793.000000)">
                <g id="4" transform="translate(855.000000, 0.000000)">
                    <g id="undraw_relaxation_1_wbr7" transform="translate(79.000000, 68.000000)">
                        <polygon id="Shape" fill="url(#linearGradient-1)" fill-rule="nonzero" points="59.0241742 62.4157106 55.9273273 62.1263049 64.8 0 68.1313814 0.358863049"></polygon>
                        <rect id="Rectangle-path" fill="#263238" fill-rule="nonzero" transform="translate(61.463864, 35.667604) rotate(-81.390000) translate(-61.463864, -35.667604) " x="34.7087593" y="34.9763382" width="53.5102102" height="1.3825323"></rect>
                        <path d="M65.1435435,9.38997416 L66.303003,1.15596899" id="Shape" stroke="#263238" stroke-width="1.32299742"></path>
                        <path d="M108.235135,26.7113178 C59.2966967,-15.0871318 17.4521021,16.5391214 17.4521021,16.5391214 L108.235135,26.7113178 Z" id="Shape" fill="url(#linearGradient-2)" fill-rule="nonzero"></path>
                        <path d="M105.31997,25.5404651 C59.7542042,-13.3506977 20.766967,16.1141085 20.766967,16.1141085 L105.31997,25.5404651 Z" id="Shape" fill="#3887B4" fill-rule="nonzero"></path>
                        <polygon id="Shape" fill="url(#linearGradient-3)" fill-rule="nonzero" points="4.96891892 50.56 7.46621622 58.1837726 10.0824324 66.1713695 12.5797297 73.7951421 15.1959459 81.782739 17.6932432 89.4065116 20.3111111 97.3941085 22.8084084 105.017881 25.4246246 113.005478 27.9219219 120.629251 30.3003003 127.890853 72.7692192 113.943152 70.3908408 106.68155 67.8935435 99.0577778 65.2773273 91.0701809 62.78003 83.4464083 60.1621622 75.4588114 57.6648649 67.8350388 55.0486486 59.8490956 52.5513514 52.2236693 49.9351351 44.2377261 47.4378378 36.6139535"></polygon>
                        <rect id="Rectangle-path" fill="#3887B4" fill-rule="nonzero" transform="translate(38.978328, 82.002494) rotate(-18.160000) translate(-38.978328, -82.002494) " x="17.582007" y="42.6639926" width="42.7926426" height="78.6770026"></rect>
                        <rect id="Rectangle-path" fill="#FFFFFF" fill-rule="nonzero" opacity="0.5" transform="translate(27.939890, 48.309484) rotate(-18.160000) translate(-27.939890, -48.309484) " x="6.54356867" y="44.4314477" width="42.7926426" height="7.75607235"></rect>
                        <rect id="Rectangle-path" fill="#FFFFFF" fill-rule="nonzero" opacity="0.5" transform="translate(32.883669, 63.400915) rotate(-18.160000) translate(-32.883669, -63.400915) " x="11.487348" y="59.5228785" width="42.7926426" height="7.75607235"></rect>
                        <rect id="Rectangle-path" fill="#FFFFFF" fill-rule="nonzero" opacity="0.5" transform="translate(37.826852, 78.491912) rotate(-18.160000) translate(-37.826852, -78.491912) " x="16.4305302" y="74.6138762" width="42.7926426" height="7.75607235"></rect>
                        <rect id="Rectangle-path" fill="#FFFFFF" fill-rule="nonzero" opacity="0.5" transform="translate(42.770631, 93.583343) rotate(-18.160000) translate(-42.770631, -93.583343) " x="21.3743095" y="89.705307" width="42.7926426" height="7.75607235"></rect>
                        <rect id="Rectangle-path" fill="#FFFFFF" fill-rule="nonzero" opacity="0.5" transform="translate(47.714410, 108.674774) rotate(-18.160000) translate(-47.714410, -108.674774) " x="26.3180888" y="104.796738" width="42.7926426" height="7.75607235"></rect>
                        <path d="M38.5668168,70.0758656 C38.5668168,70.0758656 46.5806306,59.657261 40.5851351,56.7615504 C34.5896396,53.8658398 28.3414414,55.5344703 28.3414414,55.5344703 L28.974024,57.4643928 C28.974024,57.4643928 44.2484985,59.0569509 34.6408408,67.6531266 L38.5668168,70.0758656 Z" id="Shape" fill="#FFE0D6" fill-rule="nonzero"></path>
                        <path d="M25.9003003,74.2350388 C25.9003003,74.2350388 13.2783784,70.5967959 16.3983483,64.7044961 C19.5183183,58.8121964 25.5451952,56.4556072 25.5451952,56.4556072 L26.1777778,58.3855297 C26.1777778,58.3855297 14.8127628,68.7264083 27.6394895,69.9617571 L25.9003003,74.2350388 Z" id="Shape" fill="#FFE0D6" fill-rule="nonzero"></path>
                        <path d="M16.9252252,64.5325065 C19.4984985,59.6787597 24.0421922,57.221292 25.5551051,56.5085271 L25.5385886,56.4556072 C25.5385886,56.4556072 19.51997,58.8204651 16.4,64.7044961 C13.28003,70.5885271 25.901952,74.2350388 25.901952,74.2350388 L26.0225225,73.9373643 C23.8935435,73.2494057 14.1487988,69.7814987 16.9252252,64.5325065 Z" id="Shape" fill="#000000" fill-rule="nonzero" opacity="0.2"></path>
                        <path d="M40.0599099,56.9351938 C35.1148649,54.550491 29.9996997,55.2649096 28.3596096,55.5873902 L28.3430931,55.5344703 C28.3430931,55.5344703 34.5929429,53.870801 40.5867868,56.7615504 C46.5806306,59.6522997 38.5684685,70.0758656 38.5684685,70.0758656 L38.2942943,69.910491 C39.6057057,68.0797933 45.407958,59.513385 40.0599099,56.9351938 Z" id="Shape" fill="#000000" fill-rule="nonzero" opacity="0.2"></path>
                        <ellipse id="Oval" fill="#FF7185" fill-rule="nonzero" transform="translate(27.974674, 59.152595) rotate(-18.160000) translate(-27.974674, -59.152595) " cx="27.9746738" cy="59.1525955" rx="9.96111111" ry="9.97374677"></ellipse>
                        <path d="M37.4602102,88.1099742 C33.8926426,89.2808269 31.1608108,90.8270801 30.0046547,87.2632558 L26.2058559,75.6870284 C25.0428355,72.1021691 26.9894502,68.2498098 30.5629129,67.0643928 C34.1432306,65.8998971 37.9907094,67.8489811 39.1746246,71.4269767 L42.9734234,83.0032041 C44.1378378,86.5670284 41.0261261,86.9325065 37.4602102,88.1099742 Z" id="Shape" fill="#FF8976" fill-rule="nonzero"></path>
                        <g id="Group" opacity="0.2" transform="translate(25.774775, 66.811370)" fill="#000000" fill-rule="nonzero">
                            <path d="M12.2106607,21.1249612 L11.948048,21.2126098 C12.8283784,20.9314729 13.674024,20.6916796 14.4255255,20.4353488 C13.7351351,20.6552972 12.9836336,20.871938 12.2106607,21.1249612 Z" id="Shape"></path>
                            <path d="M4.7484985,20.2716279 L0.9496997,8.69540052 C-0.182046646,5.20871446 1.62728598,1.44772858 5.05570571,0.160413437 C4.96651652,0.185219638 4.87897898,0.211679587 4.78978979,0.239793282 C1.21566603,1.42451817 -0.731794341,5.27709066 0.431081081,8.86242894 L4.22987988,20.4386563 C5.14654655,23.2351421 7.01621622,22.8928165 9.49864865,22.0510594 C7.27222222,22.7671318 5.5990991,22.8680103 4.7484985,20.2716279 Z" id="Shape"></path>
                        </g>
                        <path d="M43.2839339,83.9557623 C43.2839339,83.9557623 51.4959459,91.0536434 51.5421922,97.2022739 C51.5404703,98.2081595 51.6050249,99.2130633 51.7354354,100.210439 L52.6355856,108.975297 L48.8978979,110.008889 L47.4460961,99.0247028 C47.3645398,98.4097522 47.1299824,97.8251739 46.763964,97.3246512 L43.5812312,92.9587597 C42.8790296,91.9958662 41.6374172,91.5952688 40.5058559,91.9665116 C39.7489534,92.2152455 39.1370789,92.7805776 38.8287503,93.5160477 C38.5204216,94.2515178 38.5459781,95.0847563 38.8987988,95.7998966 L42.1162162,102.322274 L45.0891892,116.119483 L41.4010511,117.330026 C41.4010511,117.330026 38.3025526,106.684858 35.7012012,101.708734 C33.0998498,96.7326098 30.4010511,88.1910078 30.4010511,88.1910078 L43.2839339,83.9557623 Z" id="Shape" fill="#5CAADE" fill-rule="nonzero"></path>
                        <rect id="Rectangle-path" fill="#FFE0D6" fill-rule="nonzero" transform="translate(30.562324, 67.049109) rotate(-18.160000) translate(-30.562324, -67.049109) " x="29.0865731" y="64.2790831" width="2.9515015" height="5.54005168" rx="1.32299742"></rect>
                        <path d="M28.6486486,65.9547287 C28.6486486,65.9547287 30.1004505,66.4938501 31.4168168,65.0550904" id="Shape" fill="#000000" fill-rule="nonzero" opacity="0.2"></path>
                        <ellipse id="Oval" fill="#FFE0D6" fill-rule="nonzero" transform="translate(27.974674, 59.152595) rotate(-18.160000) translate(-27.974674, -59.152595) " cx="27.9746738" cy="59.1525955" rx="6.82462462" ry="6.83328165"></ellipse>
                        <path d="M21.5812312,54.4512661 C21.5812312,54.4512661 22.1972973,59.885478 33.7159159,54.158553 L29.4744745,50.6856848 L25.3304805,51.0743152 L21.5812312,54.4512661 Z" id="Shape" fill="#FF7185" fill-rule="nonzero"></path>
                        <path d="M30.9378378,61.6797933 C31.065015,62.06677 30.3614114,62.837416 29.2977477,63.1896641 C28.2340841,63.5419121 27.2100601,63.3335401 27.0828829,62.9449096 C26.9557057,62.5562791 27.7732733,62.1345736 28.8385886,61.7872868 C29.9039039,61.44 30.8106607,61.2994315 30.9378378,61.6797933 Z" id="Shape" fill="#FFFFFF" fill-rule="nonzero"></path>
                        <rect id="Rectangle-path" fill="#000000" fill-rule="nonzero" opacity="0.1" transform="translate(28.417398, 60.505609) rotate(-18.160000) translate(-28.417398, -60.505609) " x="27.6799359" y="60.0056086" width="1.47492492" height="1" rx="0.165374677"></rect>
                        <ellipse id="Oval" fill="#383F4D" fill-rule="nonzero" transform="translate(24.585852, 58.459184) rotate(-18.160000) translate(-24.585852, -58.459184) " cx="24.4541701" cy="58.3279691" rx="1" ry="1"></ellipse>
                        <ellipse id="Oval" fill="#383F4D" fill-rule="nonzero" transform="translate(30.545965, 56.501832) rotate(-18.160000) translate(-30.545965, -56.501832) " cx="30.4142831" cy="56.3706178" rx="1" ry="1"></ellipse>
                        <path d="M22.2418919,58.2350388 L22.7489489,59.7845995 C22.8623111,60.1280672 23.2301942,60.3166622 23.5747748,60.2079587 L26.1744745,59.3546253 C26.517507,59.2411193 26.7058631,58.8727696 26.5972973,58.5277519 L26.0902402,56.9781912 C25.9768781,56.6347235 25.608995,56.4461285 25.2644144,56.554832 L22.6647147,57.4081654 C22.3216822,57.5216714 22.133326,57.8900211 22.2418919,58.2350388 Z M25.75,59.2140568 L23.8506006,59.8375194 C23.50602,59.9462229 23.138137,59.7576279 23.0247748,59.4141602 L22.6845345,58.3739535 C22.5759687,58.0289358 22.7643248,57.6605861 23.1073574,57.5470801 L25.0067568,56.9236176 C25.3513373,56.814914 25.7192204,57.0035091 25.8325826,57.3469767 L26.1728228,58.3871835 C26.281099,58.73316 26.0910524,59.1019346 25.7466967,59.2140568 L25.75,59.2140568 Z" id="Shape" fill="#E75F7E" fill-rule="nonzero"></path>
                        <rect id="Rectangle-path" fill="#E75F7E" fill-rule="nonzero" opacity="0.2" transform="translate(24.419576, 58.374761) rotate(-18.160000) translate(-24.419576, -58.374761) " x="22.7596661" y="57.0823576" width="3.31981982" height="2.5848062" rx="0.592041344"></rect>
                        <path d="M26.2521021,57.8497158 L26.0869369,57.7537984 C26.0968468,57.7389147 27.2051051,56.176124 28.6618619,56.9136951 L28.5792793,57.0790698 C27.2794294,56.4175711 26.2867868,57.7934884 26.2521021,57.8497158 Z" id="Shape" fill="#E75F7E" fill-rule="nonzero"></path>
                        <ellipse id="Oval" fill="#FFE0D6" fill-rule="nonzero" transform="translate(34.459609, 57.021188) rotate(-4.970000) translate(-34.459609, -57.021188) " cx="34.4596089" cy="57.0211881" rx="1" ry="1.29322997"></ellipse>
                        <ellipse id="Oval" fill="#FFE0D6" fill-rule="nonzero" transform="translate(21.489252, 61.282111) rotate(-31.350000) translate(-21.489252, -61.282111) " cx="21.4892522" cy="61.2821108" rx="1" ry="1.29322997"></ellipse>
                        <path d="M21.862012,54.1982429 L21.5812312,54.4512661 C21.5812312,54.4512661 22.1972973,59.885478 33.7159159,54.158553 L33.2914414,53.8112661 C24.242042,58.1457364 22.2732733,55.307907 21.862012,54.1982429 Z" id="Shape" fill="#FFFFFF" fill-rule="nonzero" opacity="0.2"></path>
                        <path d="M28.1977477,56.2786563 L28.7048048,57.8282171 C28.818167,58.1716847 29.1860501,58.3602798 29.5306306,58.2515762 L32.1303303,57.3982429 C32.4733629,57.2847369 32.661719,56.9163872 32.5531532,56.5713695 L32.0527027,55.0151938 C31.9393405,54.6717261 31.5714574,54.4831311 31.2268769,54.5918346 L28.6271772,55.445168 C28.4595796,55.4982952 28.3200402,55.6161128 28.2394441,55.7725434 C28.158848,55.9289741 28.1438421,56.1111166 28.1977477,56.2786563 Z M31.7058559,57.2576744 L29.8064565,57.881137 C29.4618759,57.9898405 29.0939928,57.8012455 28.9806306,57.4577778 L28.6403904,56.4175711 C28.5318245,56.0725534 28.7201807,55.7042037 29.0632132,55.5906977 L30.9626126,54.9672351 C31.3071932,54.8585316 31.6750763,55.0471266 31.7884384,55.3905943 L32.1286787,56.430801 C32.2370988,56.7762976 32.0478981,57.1448592 31.7042042,57.2576744 L31.7058559,57.2576744 Z" id="Shape" fill="#E75F7E" fill-rule="nonzero"></path>
                        <rect id="Rectangle-path" fill="#E75F7E" fill-rule="nonzero" opacity="0.2" transform="translate(30.379689, 56.417409) rotate(-18.160000) translate(-30.379689, -56.417409) " x="28.7197791" y="55.1250062" width="3.31981982" height="2.5848062" rx="0.592041344"></rect>
                        <g id="Group" opacity="0.2" transform="translate(30.399399, 87.813953)" fill="#000000" fill-rule="nonzero">
                            <path d="M6.00540541,13.6715245 C3.40405405,8.69540052 0.705255255,0.15379845 0.705255255,0.15379845 L0.00495495495,0.383669251 C0.00495495495,0.383669251 2.70375375,8.92361757 5.30510511,13.9013953 C7.90645646,18.8791731 11.0016517,29.5160724 11.0016517,29.5160724 L11.701952,29.2862016 C11.701952,29.2862016 8.60510511,18.6410336 6.00540541,13.6715245 Z" id="Shape"></path>
                        </g>
                        <path d="M41.4010511,117.330026 L42.5572072,120.834315 L48.0423423,120.392765 C48.0423423,120.392765 48.8070571,119.170646 47.4675676,118.63814 C46.1280781,118.105633 45.0875375,116.114522 45.0875375,116.114522 L41.4010511,117.330026 Z" id="Shape" fill="#FFFAFA" fill-rule="nonzero"></path>
                        <path d="M48.7921922,109.072868 L48.4403904,112.312558 L53.6381381,114.121757 C53.6381381,114.121757 54.828979,113.311421 53.8181682,112.284444 C52.8073574,111.257468 52.662012,109.014987 52.662012,109.014987 L48.7921922,109.072868 Z" id="Shape" fill="#FFFAFA" fill-rule="nonzero"></path>
                        <path d="M41.7528529,117.215917 L41.4027027,117.33168 L42.5572072,120.834315 L48.0423423,120.392765 C48.0423423,120.392765 48.0638138,120.35969 48.0918919,120.301809 L42.9073574,120.718553 L41.7528529,117.215917 Z" id="Shape" fill="#000000" fill-rule="nonzero" opacity="0.2"></path>
                        <ellipse id="Oval" fill="#000000" fill-rule="nonzero" opacity="0.1" transform="translate(55.936761, 67.358462) rotate(-86.980000) translate(-55.936761, -67.358462) " cx="55.9367609" cy="67.3584624" rx="15.3752252" ry="54.2462016"></ellipse>
                    </g>
                </g>
            </g>
        </g>
    </g>
</svg>