<?xml version="1.0" encoding="UTF-8"?>
<svg width="161px" height="128px" viewBox="0 0 161 128" version="1.1" xmlns="http://www.w3.org/2000/svg" xmlns:xlink="http://www.w3.org/1999/xlink">
    <!-- Generator: Sketch 49.1 (51147) - http://www.bohemiancoding.com/sketch -->
    <title>undraw_opened_gi4n</title>
    <desc>Created with Sketch.</desc>
    <defs>
        <linearGradient x1="50%" y1="100%" x2="50%" y2="3.67537947e-14%" id="linearGradient-1">
            <stop stop-color="#808080" stop-opacity="0.25" offset="0%"></stop>
            <stop stop-color="#808080" stop-opacity="0.12" offset="54%"></stop>
            <stop stop-color="#808080" stop-opacity="0.1" offset="100%"></stop>
        </linearGradient>
        <linearGradient x1="-17529%" y1="15773%" x2="-17529%" y2="307%" id="linearGradient-2">
            <stop stop-color="#808080" stop-opacity="0.25" offset="0%"></stop>
            <stop stop-color="#808080" stop-opacity="0.12" offset="54%"></stop>
            <stop stop-color="#808080" stop-opacity="0.1" offset="100%"></stop>
        </linearGradient>
        <linearGradient x1="-24629%" y1="45625%" x2="-24629%" y2="30159%" id="linearGradient-3">
            <stop stop-color="#808080" stop-opacity="0.25" offset="0%"></stop>
            <stop stop-color="#808080" stop-opacity="0.12" offset="54%"></stop>
            <stop stop-color="#808080" stop-opacity="0.1" offset="100%"></stop>
        </linearGradient>
        <linearGradient x1="6000%" y1="22617%" x2="6000%" y2="7151%" id="linearGradient-4">
            <stop stop-color="#808080" stop-opacity="0.25" offset="0%"></stop>
            <stop stop-color="#808080" stop-opacity="0.12" offset="54%"></stop>
            <stop stop-color="#808080" stop-opacity="0.1" offset="100%"></stop>
        </linearGradient>
        <linearGradient x1="43566%" y1="69121%" x2="43566%" y2="921%" id="linearGradient-5">
            <stop stop-color="#808080" stop-opacity="0.25" offset="0%"></stop>
            <stop stop-color="#808080" stop-opacity="0.12" offset="54%"></stop>
            <stop stop-color="#808080" stop-opacity="0.1" offset="100%"></stop>
        </linearGradient>
        <linearGradient x1="43566%" y1="54471%" x2="43566%" y2="6959%" id="linearGradient-6">
            <stop stop-color="#808080" stop-opacity="0.25" offset="0%"></stop>
            <stop stop-color="#808080" stop-opacity="0.12" offset="54%"></stop>
            <stop stop-color="#808080" stop-opacity="0.1" offset="100%"></stop>
        </linearGradient>
        <linearGradient x1="60030%" y1="78669%" x2="60030%" y2="56596%" id="linearGradient-7">
            <stop stop-color="#808080" stop-opacity="0.25" offset="0%"></stop>
            <stop stop-color="#808080" stop-opacity="0.12" offset="54%"></stop>
            <stop stop-color="#808080" stop-opacity="0.1" offset="100%"></stop>
        </linearGradient>
    </defs>
    <g id="----▶-1.0---Search" stroke="none" stroke-width="1" fill="none" fill-rule="evenodd">
        <g id="careg-01-search-opt-a-dr3" transform="translate(-781.000000, -861.000000)" fill-rule="nonzero">
            <g id="STEPS" transform="translate(157.000000, 793.000000)">
                <g id="3" transform="translate(570.000000, 0.000000)">
                    <g id="undraw_opened_gi4n" transform="translate(54.000000, 68.000000)">
                        <rect id="Rectangle-path" fill="url(#linearGradient-1)" transform="translate(26.521910, 85.329706) rotate(-16.600000) translate(-26.521910, -85.329706) " x="3.28953568" y="71.0258913" width="46.4647477" height="28.6076301"></rect>
                        <rect id="Rectangle-path" fill="#FFFFFF" transform="translate(26.243489, 85.157447) rotate(-16.600000) translate(-26.243489, -85.157447) " x="3.79857528" y="71.8080824" width="44.889828" height="26.6987283"></rect>
                        <g id="Group" opacity="0.6" transform="translate(3.323394, 78.427746)" fill="#F55F44">
                            <rect id="Rectangle-path" transform="translate(3.399344, 2.955693) rotate(163.400000) translate(-3.399344, -2.955693) " x="0.543993776" y="0.838698643" width="5.71069954" height="4.23398844"></rect>
                            <rect id="Rectangle-path" transform="translate(18.417376, 8.559222) rotate(163.400000) translate(-18.417376, -8.559222) " x="7.45202083" y="7.87297952" width="21.930711" height="1.37248555"></rect>
                            <rect id="Rectangle-path" transform="translate(22.165202, 10.737213) rotate(163.400000) translate(-22.165202, -10.737213) " x="14.1696683" y="10.2372133" width="15.9910665" height="1"></rect>
                        </g>
                        <rect id="Rectangle-path" fill="url(#linearGradient-2)" transform="translate(134.170575, 18.489857) rotate(-78.980000) translate(-134.170575, -18.489857) " x="119.892903" y="-4.78505668" width="28.555344" height="46.5498266"></rect>
                        <rect id="Rectangle-path" fill="#FFFFFF" transform="translate(134.002725, 18.211255) rotate(-78.980000) translate(-134.002725, -18.211255) " x="120.677759" y="-4.27475661" width="26.6499312" height="44.9720231"></rect>
                        <g id="Group" opacity="0.6" transform="translate(115.211009, 3.144509)" fill="#F55F44">
                            <rect id="Rectangle-path" transform="translate(3.224174, 2.656071) rotate(-168.980000) translate(-3.224174, -2.656071) " x="0.368823832" y="0.539077278" width="5.71069954" height="4.23398844"></rect>
                            <rect id="Rectangle-path" transform="translate(13.937424, 14.598860) rotate(-168.980000) translate(-13.937424, -14.598860) " x="2.97206835" y="13.9126169" width="21.930711" height="1.37248555"></rect>
                            <rect id="Rectangle-path" transform="translate(16.250153, 18.271764) rotate(-168.980000) translate(-16.250153, -18.271764) " x="8.25461972" y="17.7717636" width="15.9910665" height="1"></rect>
                        </g>
                        <rect id="Rectangle-path" fill="url(#linearGradient-3)" transform="translate(138.605034, 82.488323) rotate(-23.450000) translate(-138.605034, -82.488323) " x="124.327362" y="59.21341" width="28.555344" height="46.5498266"></rect>
                        <rect id="Rectangle-path" fill="#FFFFFF" transform="translate(138.738154, 82.191825) rotate(-23.450000) translate(-138.738154, -82.191825) " x="125.413188" y="59.7058139" width="26.6499312" height="44.9720231"></rect>
                        <g id="Group" opacity="0.6" transform="translate(130.904817, 58.820809)" fill="#47E6B1">
                            <rect id="Rectangle-path" transform="translate(9.230420, 3.496565) rotate(-113.450000) translate(-9.230420, -3.496565) " x="6.37507026" y="1.37957074" width="5.71069954" height="4.23398844"></rect>
                            <rect id="Rectangle-path" transform="translate(5.465620, 19.102284) rotate(-113.450000) translate(-5.465620, -19.102284) " x="-5.49973521" y="18.4160414" width="21.930711" height="1.37248555"></rect>
                            <rect id="Rectangle-path" transform="translate(3.753085, 23.088860) rotate(-113.450000) translate(-3.753085, -23.088860) " x="-4.24244842" y="22.5888602" width="15.9910665" height="1"></rect>
                        </g>
                        <rect id="Rectangle-path" fill="url(#linearGradient-4)" transform="translate(39.251774, 21.462332) rotate(-19.530000) translate(-39.251774, -21.462332) " x="16.0194001" y="7.15851722" width="46.4647477" height="28.6076301"></rect>
                        <rect id="Rectangle-path" fill="#FFFFFF" transform="translate(38.966161, 21.307848) rotate(-19.530000) translate(-38.966161, -21.307848) " x="16.5212469" y="7.95848432" width="44.889828" height="26.6987283"></rect>
                        <g id="Group" opacity="0.6" transform="translate(15.693807, 15.537572)" fill="#3887B4">
                            <rect id="Rectangle-path" transform="translate(3.570833, 3.010985) rotate(160.470000) translate(-3.570833, -3.010985) " x="0.715483102" y="0.893991158" width="5.71069954" height="4.23398844"></rect>
                            <rect id="Rectangle-path" transform="translate(18.854938, 7.840945) rotate(160.470000) translate(-18.854938, -7.840945) " x="7.88958267" y="7.15470178" width="21.930711" height="1.37248555"></rect>
                            <rect id="Rectangle-path" transform="translate(22.708483, 9.824242) rotate(160.470000) translate(-22.708483, -9.824242) " x="14.7129501" y="9.32424163" width="15.9910665" height="1"></rect>
                        </g>
                        <polygon id="Shape" fill="url(#linearGradient-5)" points="80.6218578 1.70358382 26.5243807 52.7241618 26.5243807 127.853873 134.717489 127.853873 134.717489 52.7241618"></polygon>
                        <polygon id="Shape" fill="#FFFFFF" points="134.169128 126.20578 27.0727408 126.20578 27.0727408 52.6020809 80.6218578 2.61919075 134.169128 52.6020809"></polygon>
                        <rect id="Rectangle-path" fill="url(#linearGradient-6)" x="43.3389106" y="12.8721387" width="74.5640482" height="87.8834682"></rect>
                        <rect id="Rectangle-path" fill="#FFFFFF" x="44.280539" y="13.6046243" width="72.6807913" height="87.1509827"></rect>
                        <polygon id="Shape" fill="#F5F5F5" points="27.0727408 52.6020809 80.6218578 89.4039306 27.0727408 126.20578"></polygon>
                        <polygon id="Shape" fill="#F5F5F5" points="134.169128 52.6020809 80.6218578 89.4039306 134.169128 126.20578"></polygon>
                        <path d="M27.0727408,126.203931 L78.5188876,86.1040462 C79.7510378,85.1323227 81.4871388,85.1323227 82.719289,86.1040462 L134.169128,126.203931 L27.0727408,126.203931 Z" id="Shape" fill="url(#linearGradient-7)"></path>
                        <path d="M27.0727408,126.203931 L78.5188876,87.8557225 C79.7655142,86.9268125 81.4726624,86.9268125 82.719289,87.8557225 L134.169128,126.203931 L27.0727408,126.203931 Z" id="Shape" fill="#FFFFFF"></path>
                        <rect id="Rectangle-path" fill="#47E6B1" x="55.3086697" y="30.4480925" width="15.1694495" height="2.56369942"></rect>
                        <rect id="Rectangle-path" fill="#F5F5F5" x="55.3086697" y="37.2235838" width="50.6245298" height="2.56369942"></rect>
                        <rect id="Rectangle-path" fill="#F5F5F5" x="55.3086697" y="41.6166474" width="50.6245298" height="2.56369942"></rect>
                        <rect id="Rectangle-path" fill="#F5F5F5" x="55.3086697" y="46.0115607" width="50.6245298" height="2.56369942"></rect>
                        <rect id="Rectangle-path" fill="#F5F5F5" x="55.3086697" y="50.4046243" width="50.6245298" height="2.56369942"></rect>
                        <rect id="Rectangle-path" fill="#F5F5F5" x="55.3086697" y="54.7995376" width="23.0274312" height="2.56369942"></rect>
                        <rect id="Rectangle-path" fill="#3887B4" x="82.9057683" y="54.7995376" width="23.0274312" height="2.56369942"></rect>
                    </g>
                </g>
            </g>
        </g>
    </g>
</svg>